<svg xmlns="http://www.w3.org/2000/svg" xmlns:xlink="http://www.w3.org/1999/xlink" width="2193.981" height="1839.809" version="1.0"><defs><linearGradient id="d"><stop offset="0" stop-color="#37c037"/><stop offset="1" stop-color="#37c037" stop-opacity="0"/></linearGradient><linearGradient id="c"><stop offset="0" stop-color="#00f"/><stop offset="1" stop-color="#00f" stop-opacity="0"/></linearGradient><linearGradient id="e"><stop offset="0" stop-color="#ff0"/><stop offset="1" stop-color="#ff0" stop-opacity="0"/></linearGradient><linearGradient id="b"><stop offset="0" stop-color="red"/><stop offset="1" stop-color="red" stop-opacity="0"/></linearGradient><linearGradient id="a"><stop offset="0"/><stop offset="1" stop-opacity="0"/></linearGradient><linearGradient xlink:href="#b" id="l" gradientUnits="userSpaceOnUse" x1="321.176" y1="287.45" x2="77.207" y2="107.325"/><linearGradient xlink:href="#c" id="m" gradientUnits="userSpaceOnUse" x1="321.176" y1="287.45" x2="77.207" y2="107.325"/><linearGradient xlink:href="#d" id="n" gradientUnits="userSpaceOnUse" x1="321.176" y1="287.45" x2="77.207" y2="107.325"/><linearGradient xlink:href="#b" id="Q" gradientUnits="userSpaceOnUse" x1="321.176" y1="287.45" x2="77.207" y2="107.325"/><linearGradient xlink:href="#e" id="U" gradientUnits="userSpaceOnUse" x1="321.176" y1="287.45" x2="77.207" y2="107.325"/><linearGradient xlink:href="#b" id="V" gradientUnits="userSpaceOnUse" x1="321.176" y1="287.45" x2="77.207" y2="107.325"/><linearGradient xlink:href="#c" id="W" gradientUnits="userSpaceOnUse" x1="321.176" y1="287.45" x2="77.207" y2="107.325"/><linearGradient xlink:href="#e" id="j" gradientUnits="userSpaceOnUse" x1="321.176" y1="287.45" x2="77.207" y2="107.325"/><linearGradient xlink:href="#b" id="P" gradientUnits="userSpaceOnUse" x1="321.176" y1="287.45" x2="77.207" y2="107.325"/><filter id="k"><feGaussianBlur stdDeviation=".817"/></filter><filter id="f"><feGaussianBlur stdDeviation="2.835"/></filter><filter id="g"><feGaussianBlur stdDeviation="1.403"/></filter><filter id="h"><feGaussianBlur stdDeviation="1.149"/></filter><filter id="i"><feGaussianBlur stdDeviation="1.179"/></filter><marker orient="auto" refY="0" refX="0" id="J" overflow="visible"><path d="M4 0l2-2-7 2 7 2-2-2z" fill-rule="evenodd" stroke="#000" stroke-width=".4pt"/></marker><marker orient="auto" refY="0" refX="0" id="M" overflow="visible"><path d="M8.719 4.034L-2.207.016 8.719-4.002c-1.746 2.372-1.736 5.618 0 8.036z" transform="scale(.6)" font-size="12" fill-rule="evenodd" stroke-width=".625" stroke-linejoin="round"/></marker><marker orient="auto" refY="0" refX="0" id="G" overflow="visible"><path d="M-4 0l-2 2 7-2-7-2 2 2z" fill-rule="evenodd" stroke="#000" stroke-width=".4pt"/></marker></defs><g transform="translate(54.379 -11.858)"><g stroke-linecap="round" stroke-linejoin="round" id="F"><path d="M31.993 1270.057c10.64 0 19.277 8.11 19.277 18.106 0 9.996-8.636 18.112-19.277 18.112-7.99 0-14.85-4.576-17.771-11.09H9.213c-.067-3.547.137-3.061.137-3.061l-4.141 1.635h-.422l-2.057-3.061-1.879 2.833-.607.022-2.51-2.75-3.834 3.382-1.666.002-4.381-3.489-2.937 3.195-.675-.026-1.892-1.334-2.605.995-2.294-.106-2.942-3.127-2.224 2.853h-1.376l-7.21-9.349v-2.66h50.524c2.921-6.51 9.78-11.082 17.771-11.082zm9.199 13.066a5.043 5.043 0 000 10.085 5.049 5.049 0 005.045-5.045 5.043 5.043 0 00-5.045-5.04z" fill="#ff7f00" stroke="#000" stroke-width="1.05819725"/><path fill="#d4aa00" stroke="#000" stroke-width="1.05819725" d="M13.235 1282.791H-33.58v1.518h46.814zM13.235 1286.146h-44.4v1.518h44.4z"/><path d="M517.274 337.702v11.094L480.9 395.921h-6.937l-11.188-14.375-14.844 15.75-11.562.531-13.125-5-9.563 6.72-3.375.124-14.812-16.094-22.094 17.594-8.406-.031-19.313-17.031 9.236-10.103-21.892 23.946-3.062-.093-9.47-14.282-10.374 15.438h-2.125l-20.625-8.156c.276.718.655 3.772.437 15.343h-25.25c-14.728 32.836-49.307 55.907-89.593 55.907-45.57 0-83.852-29.532-94.344-69.313 9.6 40.937 48.462 71.625 94.906 71.625 40.286 0 74.865-23.07 89.594-55.906h25.25c.21-11.18-.104-14.427-.375-15.281l20.562 8.093h2.125l10.375-15.437 9.47 14.281 3.062.094 12.656-13.844 19.344 17.031 8.406.032 22.062-17.594 14.813 16.094 3.406-.125 9.531-6.719 13.125 5 11.594-.531 14.813-15.75 11.218 14.375h6.938l36.344-47.125v-13.407h-.563zm-390.687 7.688c-14.037 0-25.438 11.37-25.438 25.406 0 2.587.374 5.084 1.094 7.438a25.52 25.52 0 01-.531-5.125c0-14.037 11.4-25.407 25.437-25.407 11.405 0 21.066 7.524 24.281 17.875-2.415-11.523-12.606-20.187-24.843-20.187z" stroke="#000" stroke-width="5.335" filter="url(#f)" transform="matrix(-.19835 0 0 .19835 66.414 1213.811)"/><path d="M173.531 283.563c-53.645 0-97.187 40.886-97.187 91.28 0 6.3.673 12.465 1.969 18.407a86.406 86.406 0 01-1.376-15.5c0-50.395 43.543-91.281 97.188-91.281 40.286 0 74.865 23.048 89.594 55.875h254.125v-2.906H263.125c-14.729-32.828-49.308-55.875-89.594-55.875zm-21.187 87.875c.152 1.124.219 2.271.219 3.437 0 14.036-11.37 25.406-25.407 25.406-11.819 0-21.744-8.066-24.594-19 1.723 12.368 12.35 21.907 25.188 21.906 14.036 0 25.406-11.37 25.406-25.406 0-2.193-.29-4.312-.812-6.344z" fill="#fff" stroke-width=".5" filter="url(#g)" transform="matrix(-.19835 0 0 .19835 66.414 1213.811)"/><path d="M190.997 294.922a10.674 10.674 0 00-5.468 2.812 10.572 10.572 0 00-3.22 7.625v138.532a10.6 10.6 0 003.095 7.5c-.876-1.56-1.378-3.319-1.375-5.157v-138.53a10.572 10.572 0 013.218-7.626 10.72 10.72 0 013.75-2.344v-2.812zm4.625.187v159.032a85.72 85.72 0 001.72-.438v-156.25c2.56.62 5.073 1.36 7.53 2.188v-1.75a91.096 91.096 0 00-9.25-2.782zm13.875 4.563v149.906a89.135 89.135 0 001.72-.75V302.016a89.985 89.985 0 017.53 3.562v-1.375a90.027 90.027 0 00-9.25-4.531zm13.875 7.344v135.218c.58-.374 1.151-.737 1.72-1.125V309.36a87.815 87.815 0 017.53 5.438v-.906a87.367 87.367 0 00-9.25-6.875zm13.875 11.156v112.906a88.761 88.761 0 001.72-1.75V320.516c2.536 2.505 4.929 5.127 7.124 7.906a84.34 84.34 0 00-8.844-10.25zm8.844 10.25c.138.174.27.356.406.531v-.031c-.124-.174-.28-.327-.406-.5zm5.031 7.781v76.813a79.976 79.976 0 001.72-3.22v-70.343a81.098 81.098 0 00-1.72-3.25z" fill="gray" stroke-width=".5" filter="url(#h)" transform="matrix(-.19835 0 0 .19835 66.414 1213.811)"/><path d="M191.497 295.422c-1.008.185-1.99.533-2.906 1v156.062a10.67 10.67 0 01-3.156-1.125c.425.486.89.937 1.406 1.344a10.573 10.573 0 004.656 2.094V295.422zm10.97 2v152.125a93.212 93.212 0 01-6.345 2.031v3.063a91.032 91.032 0 009.25-2.782V298.391c-.958-.343-1.934-.656-2.906-.97zm13.874 5.719V443.234a89.384 89.384 0 01-6.344 3.25v3.594a89.991 89.991 0 009.25-4.531V304.703a89.453 89.453 0 00-2.906-1.562zm13.875 8.937v121.438a88.84 88.84 0 01-6.344 4.906v4.312a87.5 87.5 0 009.25-6.906V314.391c-.943-.804-1.926-1.549-2.906-2.313zm7.531 6.594v.687a80.525 80.525 0 016.344 7.75v91.375c-1.941 2.709-4.07 5.282-6.344 7.75v5.344c3.382-3.343 6.502-6.948 9.25-10.781v-91.375c-2.748-3.832-5.868-7.41-9.25-10.75zm13.875 18.031v3.313c4.7 10.059 7.313 21.15 7.313 32.78 0 11.632-2.614 22.721-7.313 32.782v7.938c6.512-11.487 10.22-24.564 10.22-38.407 0-13.842-3.708-26.923-10.22-38.406z" fill="#ff7f00" stroke-width=".5" filter="url(#i)" transform="matrix(-.19835 0 0 .19835 66.414 1213.811)"/></g><g stroke-linecap="round" stroke-linejoin="round" id="p"><path d="M71.606 1270.057c-10.64 0-19.277 8.11-19.277 18.106 0 9.996 8.636 18.112 19.277 18.112 7.991 0 14.85-4.576 17.772-11.09h5.008c.067-3.547-.137-3.061-.137-3.061l4.141 1.635h.422l2.058-3.061 1.878 2.833.608.022 2.51-2.75 3.833 3.382 1.667.002 4.38-3.489 2.938 3.195.675-.026 1.892-1.334 2.604.995 2.294-.106 2.943-3.127 2.223 2.853h1.376l7.211-9.349v-2.66H89.378c-2.922-6.51-9.78-11.082-17.772-11.082zm-9.198 13.066a5.043 5.043 0 010 10.085 5.049 5.049 0 01-5.046-5.045 5.043 5.043 0 015.046-5.04z" fill="#fc0" stroke="#000" stroke-width="1.05819725"/><path fill="#d4aa00" stroke="#000" stroke-width="1.05819725" d="M90.364 1282.791h46.814v1.518H90.364zM90.364 1286.146h44.4v1.518h-44.4z"/><path d="M517.274 337.702v11.094L480.9 395.921h-6.937l-11.188-14.375-14.844 15.75-11.562.531-13.125-5-9.563 6.72-3.375.124-14.812-16.094-22.094 17.594-8.406-.031-19.313-17.031-12.656 13.843-3.062-.093-9.47-14.282-10.374 15.438h-2.125l-20.625-8.156c.276.718.655 3.772.437 15.343h-25.25c-14.728 32.836-49.307 55.907-89.593 55.907-45.57 0-83.852-29.532-94.344-69.313 9.6 40.937 48.462 71.625 94.906 71.625 40.286 0 74.865-23.07 89.594-55.906h25.25c.21-11.18-.104-14.427-.375-15.281l20.562 8.093h2.125l10.375-15.437 9.47 14.281 3.062.094 12.656-13.844 19.344 17.031 8.406.032 22.062-17.594 14.813 16.094 3.406-.125 9.531-6.719 13.125 5 11.594-.531 14.813-15.75 11.218 14.375h6.938l36.344-47.125v-13.407h-.563zm-390.687 7.688c-14.037 0-25.438 11.37-25.438 25.406 0 2.587.374 5.084 1.094 7.438a25.52 25.52 0 01-.531-5.125c0-14.037 11.4-25.407 25.437-25.407 11.405 0 21.066 7.524 24.281 17.875-2.415-11.523-12.606-20.187-24.843-20.187z" stroke="#000" stroke-width="5.335" filter="url(#f)" transform="matrix(.19835 0 0 .19835 37.186 1213.811)"/><path d="M173.531 283.563c-53.645 0-97.187 40.886-97.187 91.28 0 6.3.673 12.465 1.969 18.407a86.406 86.406 0 01-1.376-15.5c0-50.395 43.543-91.281 97.188-91.281 40.286 0 74.865 23.048 89.594 55.875h254.125v-2.906H263.125c-14.729-32.828-49.308-55.875-89.594-55.875zm-21.187 87.875c.152 1.124.219 2.271.219 3.437 0 14.036-11.37 25.406-25.407 25.406-11.819 0-21.744-8.066-24.594-19 1.723 12.368 12.35 21.907 25.188 21.906 14.036 0 25.406-11.37 25.406-25.406 0-2.193-.29-4.312-.812-6.344z" fill="#fff" stroke-width=".5" filter="url(#g)" transform="matrix(.19835 0 0 .19835 37.186 1213.811)"/><path d="M190.997 294.922a10.674 10.674 0 00-5.468 2.812 10.572 10.572 0 00-3.22 7.625v138.532a10.6 10.6 0 003.095 7.5c-.876-1.56-1.378-3.319-1.375-5.157v-138.53a10.572 10.572 0 013.218-7.626 10.72 10.72 0 013.75-2.344v-2.812zm4.625.187v159.032a85.72 85.72 0 001.72-.438v-156.25c2.56.62 5.073 1.36 7.53 2.188v-1.75a91.096 91.096 0 00-9.25-2.782zm13.875 4.563v149.906a89.135 89.135 0 001.72-.75V302.016a89.985 89.985 0 017.53 3.562v-1.375a90.027 90.027 0 00-9.25-4.531zm13.875 7.344v135.218c.58-.374 1.151-.737 1.72-1.125V309.36a87.815 87.815 0 017.53 5.438v-.906a87.367 87.367 0 00-9.25-6.875zm13.875 11.156v112.906a88.761 88.761 0 001.72-1.75V320.516c2.536 2.505 4.929 5.127 7.124 7.906a84.34 84.34 0 00-8.844-10.25zm8.844 10.25c.138.174.27.356.406.531v-.031c-.124-.174-.28-.327-.406-.5zm5.031 7.781v76.813a79.976 79.976 0 001.72-3.22v-70.343a81.098 81.098 0 00-1.72-3.25z" fill="gray" stroke-width=".5" filter="url(#h)" transform="matrix(.19835 0 0 .19835 37.186 1213.811)"/><path d="M191.497 295.422c-1.008.185-1.99.533-2.906 1v156.062a10.67 10.67 0 01-3.156-1.125c.425.486.89.937 1.406 1.344a10.573 10.573 0 004.656 2.094V295.422zm10.97 2v152.125a93.212 93.212 0 01-6.345 2.031v3.063a91.032 91.032 0 009.25-2.782V298.391c-.958-.343-1.934-.656-2.906-.97zm13.874 5.719v140.093a89.384 89.384 0 01-6.344 3.25v3.594a89.991 89.991 0 009.25-4.531V304.703a89.453 89.453 0 00-2.906-1.562zm13.875 8.937v121.438a88.84 88.84 0 01-6.344 4.906v4.312a87.5 87.5 0 009.25-6.906V314.391c-.943-.804-1.926-1.549-2.906-2.313zm7.531 6.594v.687a80.525 80.525 0 016.344 7.75v91.375c-1.941 2.709-4.07 5.282-6.344 7.75v5.344c3.382-3.343 6.502-6.948 9.25-10.781v-91.375c-2.748-3.832-5.868-7.41-9.25-10.75zm13.875 18.031v3.313c4.7 10.059 7.313 21.15 7.313 32.78 0 11.632-2.614 22.721-7.313 32.782v7.938c6.512-11.487 10.22-24.564 10.22-38.407 0-13.842-3.708-26.923-10.22-38.406z" fill="#fd5" stroke-width=".5" filter="url(#i)" transform="matrix(.19835 0 0 .19835 37.186 1213.811)"/></g><g id="q" transform="translate(140.072 1136.96)" font-weight="400" font-family="Nimbus Sans L"><rect style="text-align:start;line-height:100%" width="242.857" height="80" x="80" y="109.505" transform="matrix(.35804 0 0 .45866 236.751 82.627)" rx="22.344" ry="22.344" font-size="49.354" fill="url(#j) #000" stroke="#000" stroke-width="2.468" stroke-linecap="round" stroke-linejoin="round" stroke-dashoffset=".4" filter="url(#k)"/><text style="text-align:start;line-height:100%" x="288.505" y="157.354" font-size="20"><tspan x="288.505" y="157.354" style="text-align:start;line-height:100%"><tspan font-weight="700">RN</tspan><tspan font-size="16">c</tspan></tspan></text></g><g id="u" stroke-linecap="round" stroke-linejoin="round"><path d="M1800.551 1307.457c-10.64 0-19.277 8.11-19.277 18.106 0 9.996 8.637 18.112 19.277 18.112 7.991 0 14.85-4.576 17.772-11.09h5.008c.067-3.547-.137-3.061-.137-3.061l4.141 1.635h.422l2.058-3.06 1.878 2.832.608.022 2.51-2.75 3.833 3.382 1.667.002 4.38-3.489 2.938 3.195.675-.026 1.892-1.334 2.604.995 2.294-.106 2.943-3.127 2.223 2.853h1.376l7.211-9.349v-2.66h-50.524c-2.922-6.51-9.78-11.082-17.772-11.082zm-9.198 13.066a5.043 5.043 0 010 10.086 5.049 5.049 0 01-5.046-5.046 5.043 5.043 0 015.046-5.04z" fill="#2a20d4" stroke="#000" stroke-width="1.0582670299999999"/><path fill="#d4aa00" stroke="#000" stroke-width="1.0582670299999999" d="M1819.31 1320.191h46.813v1.518h-46.814zM1819.31 1323.546h44.399v1.518h-44.4z"/><path transform="matrix(.19835 0 0 .19835 1766.13 1251.211)" d="M517.274 337.702v11.094L480.9 395.921h-6.937l-11.188-14.375-14.844 15.75-11.562.531-13.125-5-9.563 6.72-3.375.124-14.812-16.094-22.094 17.594-8.406-.031-19.313-17.031-12.656 13.843-3.062-.093-9.47-14.282-10.374 15.438h-2.125l-20.625-8.156c.276.718.655 3.772.437 15.343h-25.25c-14.728 32.836-49.307 55.907-89.593 55.907-45.57 0-83.852-29.532-94.344-69.313 9.6 40.937 48.462 71.625 94.906 71.625 40.286 0 74.865-23.07 89.594-55.906h25.25c.21-11.18-.104-14.427-.375-15.281l20.562 8.093h2.125l10.375-15.437 9.47 14.281 3.062.094 12.656-13.844 19.344 17.031 8.406.032 22.062-17.594 14.813 16.094 3.406-.125 9.531-6.719 13.125 5 11.594-.531 14.813-15.75 11.218 14.375h6.938l36.344-47.125v-13.407h-.563zm-390.687 7.688c-14.037 0-25.438 11.37-25.438 25.406 0 2.587.374 5.084 1.094 7.438a25.52 25.52 0 01-.531-5.125c0-14.037 11.4-25.407 25.437-25.407 11.405 0 21.066 7.524 24.281 17.875-2.415-11.523-12.606-20.187-24.843-20.187z" stroke="#000" stroke-width="5.335" filter="url(#f)"/><path transform="matrix(.19835 0 0 .19835 1766.13 1251.211)" d="M173.531 283.563c-53.645 0-97.187 40.886-97.187 91.28 0 6.3.673 12.465 1.969 18.407a86.406 86.406 0 01-1.376-15.5c0-50.395 43.543-91.281 97.188-91.281 40.286 0 74.865 23.048 89.594 55.875h254.125v-2.906H263.125c-14.729-32.828-49.308-55.875-89.594-55.875zm-21.187 87.875c.152 1.124.219 2.271.219 3.437 0 14.036-11.37 25.406-25.407 25.406-11.819 0-21.744-8.066-24.594-19 1.723 12.368 12.35 21.907 25.188 21.906 14.036 0 25.406-11.37 25.406-25.406 0-2.193-.29-4.312-.812-6.344z" fill="#fff" stroke-width=".5" filter="url(#g)"/><path transform="matrix(.19835 0 0 .19835 1766.13 1251.211)" d="M190.997 294.922a10.674 10.674 0 00-5.468 2.812 10.572 10.572 0 00-3.22 7.625v138.532a10.6 10.6 0 003.095 7.5c-.876-1.56-1.378-3.319-1.375-5.157v-138.53a10.572 10.572 0 013.218-7.626 10.72 10.72 0 013.75-2.344v-2.812zm4.625.187v159.032a85.72 85.72 0 001.72-.438v-156.25c2.56.62 5.073 1.36 7.53 2.188v-1.75a91.096 91.096 0 00-9.25-2.782zm13.875 4.563v149.906a89.135 89.135 0 001.72-.75V302.016a89.985 89.985 0 017.53 3.562v-1.375a90.027 90.027 0 00-9.25-4.531zm13.875 7.344v135.218c.58-.374 1.151-.737 1.72-1.125V309.36a87.815 87.815 0 017.53 5.438v-.906a87.367 87.367 0 00-9.25-6.875zm13.875 11.156v112.906a88.761 88.761 0 001.72-1.75V320.516c2.536 2.505 4.929 5.127 7.124 7.906a84.34 84.34 0 00-8.844-10.25zm8.844 10.25c.138.174.27.356.406.531v-.031c-.124-.174-.28-.327-.406-.5zm5.031 7.781v76.813a79.976 79.976 0 001.72-3.22v-70.343a81.098 81.098 0 00-1.72-3.25z" fill="gray" stroke-width=".5" filter="url(#h)"/><path transform="matrix(.19835 0 0 .19835 1766.13 1251.211)" d="M191.497 295.422c-1.008.185-1.99.533-2.906 1v156.062a10.67 10.67 0 01-3.156-1.125c.425.486.89.937 1.406 1.344a10.573 10.573 0 004.656 2.094V295.422zm10.97 2v152.125a93.212 93.212 0 01-6.345 2.031v3.063a91.032 91.032 0 009.25-2.782V298.391c-.958-.343-1.934-.656-2.906-.97zm13.874 5.719v140.093a89.384 89.384 0 01-6.344 3.25v3.594a89.991 89.991 0 009.25-4.531V304.703a89.453 89.453 0 00-2.906-1.562zm13.875 8.937v121.438a88.84 88.84 0 01-6.344 4.906v4.312a87.5 87.5 0 009.25-6.906V314.391c-.943-.804-1.926-1.549-2.906-2.313zm7.531 6.594v.687a80.525 80.525 0 016.344 7.75v91.375c-1.941 2.709-4.07 5.282-6.344 7.75v5.344c3.382-3.343 6.502-6.948 9.25-10.781v-91.375c-2.748-3.832-5.868-7.41-9.25-10.75zm13.875 18.031v3.313c4.7 10.059 7.313 21.15 7.313 32.78 0 11.632-2.614 22.721-7.313 32.782v7.938c6.512-11.487 10.22-24.564 10.22-38.407 0-13.842-3.708-26.923-10.22-38.406z" fill="#2a20d4" stroke-width=".5" filter="url(#i)"/></g><g transform="translate(163.892 1137.22)" id="r" font-weight="400" font-family="Nimbus Sans L"><rect ry="22.344" rx="22.344" style="text-align:start;line-height:100%" width="242.857" height="80" x="80" y="109.505" transform="matrix(.35804 0 0 .45866 124.979 82.376)" font-size="49.354" fill="url(#l) #000" stroke="#000" stroke-width="2.468" stroke-linecap="round" stroke-linejoin="round" stroke-dashoffset=".4" filter="url(#k)"/><text style="text-align:start;line-height:100%" x="176.741" y="158.727" font-size="20" fill="#fff"><tspan x="176.741" y="158.727" style="text-align:start;line-height:100%"><tspan font-weight="700">RN</tspan><tspan font-size="16">s</tspan></tspan></text></g><g transform="translate(75.99 1073.66)" id="s" font-weight="400" font-family="Nimbus Sans L"><rect rx="22.344" style="text-align:start;line-height:100%" width="242.857" height="80" x="80" y="109.505" transform="matrix(.35804 0 0 .45866 124.93 145.933)" ry="22.344" font-size="49.354" fill="url(#m) #000" stroke="#000" stroke-width="2.468" stroke-linecap="round" stroke-linejoin="round" stroke-dashoffset=".4" filter="url(#k)"/><text style="text-align:start;line-height:100%" x="172.289" y="221.435" font-size="20" fill="#fff"><tspan x="172.289" y="221.435" style="text-align:start;line-height:100%" font-weight="700">PMS</tspan></text></g><g stroke-linecap="round" stroke-linejoin="round" id="t"><path d="M209.256 1270.057c10.64 0 19.277 8.11 19.277 18.106 0 9.996-8.637 18.112-19.277 18.112-7.991 0-14.85-4.576-17.772-11.09h-5.008c-.067-3.547.137-3.061.137-3.061l-4.141 1.635h-.422l-2.058-3.061-1.878 2.833-.608.022-2.51-2.75-3.833 3.382-1.667.002-4.38-3.489-2.938 3.195-.675-.026-1.892-1.334-2.604.995-2.294-.106-2.943-3.127-2.223 2.853h-1.376l-7.211-9.349v-2.66h50.524c2.922-6.51 9.78-11.082 17.772-11.082zm9.198 13.066a5.043 5.043 0 000 10.085 5.049 5.049 0 005.046-5.045 5.043 5.043 0 00-5.046-5.04z" fill="#20a3d4" stroke="#000" stroke-width="1.05819725"/><path fill="#d4aa00" stroke="#000" stroke-width="1.05819725" d="M190.498 1282.791h-46.814v1.518h46.814zM190.498 1286.146h-44.4v1.518h44.4z"/><path d="M517.274 337.702v11.094L480.9 395.921h-6.937l-11.188-14.375-14.844 15.75-11.562.531-13.125-5-9.563 6.72-3.375.124-14.812-16.094-22.094 17.594-8.406-.031-19.313-17.031-12.656 13.843-3.062-.093-9.47-14.282-10.374 15.438h-2.125l-20.625-8.156c.276.718.655 3.772.437 15.343h-25.25c-14.728 32.836-49.307 55.907-89.593 55.907-45.57 0-83.852-29.532-94.344-69.313 9.6 40.937 48.462 71.625 94.906 71.625 40.286 0 74.865-23.07 89.594-55.906h25.25c.21-11.18-.104-14.427-.375-15.281l20.562 8.093h2.125l10.375-15.437 9.47 14.281 3.062.094 12.656-13.844 19.344 17.031 8.406.032 22.062-17.594 14.813 16.094 3.406-.125 9.531-6.719 13.125 5 11.594-.531 14.813-15.75 11.218 14.375h6.938l36.344-47.125v-13.407h-.563zm-390.687 7.688c-14.037 0-25.438 11.37-25.438 25.406 0 2.587.374 5.084 1.094 7.438a25.52 25.52 0 01-.531-5.125c0-14.037 11.4-25.407 25.437-25.407 11.405 0 21.066 7.524 24.281 17.875-2.415-11.523-12.606-20.187-24.843-20.187z" stroke="#000" stroke-width="5.335" filter="url(#f)" transform="matrix(-.19835 0 0 .19835 243.676 1213.811)"/><path d="M173.531 283.563c-53.645 0-97.187 40.886-97.187 91.28 0 6.3.673 12.465 1.969 18.407a86.406 86.406 0 01-1.376-15.5c0-50.395 43.543-91.281 97.188-91.281 40.286 0 74.865 23.048 89.594 55.875h254.125v-2.906H263.125c-14.729-32.828-49.308-55.875-89.594-55.875zm-21.187 87.875c.152 1.124.219 2.271.219 3.437 0 14.036-11.37 25.406-25.407 25.406-11.819 0-21.744-8.066-24.594-19 1.723 12.368 12.35 21.907 25.188 21.906 14.036 0 25.406-11.37 25.406-25.406 0-2.193-.29-4.312-.812-6.344z" fill="#fff" stroke-width=".5" filter="url(#g)" transform="matrix(-.19835 0 0 .19835 243.676 1213.811)"/><path d="M190.997 294.922a10.674 10.674 0 00-5.468 2.812 10.572 10.572 0 00-3.22 7.625v138.532a10.6 10.6 0 003.095 7.5c-.876-1.56-1.378-3.319-1.375-5.157v-138.53a10.572 10.572 0 013.218-7.626 10.72 10.72 0 013.75-2.344v-2.812zm4.625.187v159.032a85.72 85.72 0 001.72-.438v-156.25c2.56.62 5.073 1.36 7.53 2.188v-1.75a91.096 91.096 0 00-9.25-2.782zm13.875 4.563v149.906a89.135 89.135 0 001.72-.75V302.016a89.985 89.985 0 017.53 3.562v-1.375a90.027 90.027 0 00-9.25-4.531zm13.875 7.344v135.218c.58-.374 1.151-.737 1.72-1.125V309.36a87.815 87.815 0 017.53 5.438v-.906a87.367 87.367 0 00-9.25-6.875zm13.875 11.156v112.906a88.761 88.761 0 001.72-1.75V320.516c2.536 2.505 4.929 5.127 7.124 7.906a84.34 84.34 0 00-8.844-10.25zm8.844 10.25c.138.174.27.356.406.531v-.031c-.124-.174-.28-.327-.406-.5zm5.031 7.781v76.813a79.976 79.976 0 001.72-3.22v-70.343a81.098 81.098 0 00-1.72-3.25z" fill="gray" stroke-width=".5" filter="url(#h)" transform="matrix(-.19835 0 0 .19835 243.676 1213.811)"/><path d="M191.497 295.422c-1.008.185-1.99.533-2.906 1v156.062a10.67 10.67 0 01-3.156-1.125c.425.486.89.937 1.406 1.344a10.573 10.573 0 004.656 2.094V295.422zm10.97 2v152.125a93.212 93.212 0 01-6.345 2.031v3.063a91.032 91.032 0 009.25-2.782V298.391c-.958-.343-1.934-.656-2.906-.97zm13.874 5.719v140.093a89.384 89.384 0 01-6.344 3.25v3.594a89.991 89.991 0 009.25-4.531V304.703a89.453 89.453 0 00-2.906-1.562zm13.875 8.937v121.438a88.84 88.84 0 01-6.344 4.906v4.312a87.5 87.5 0 009.25-6.906V314.391c-.943-.804-1.926-1.549-2.906-2.313zm7.531 6.594v.687a80.525 80.525 0 016.344 7.75v91.375c-1.941 2.709-4.07 5.282-6.344 7.75v5.344c3.382-3.343 6.502-6.948 9.25-10.781v-91.375c-2.748-3.832-5.868-7.41-9.25-10.75zm13.875 18.031v3.313c4.7 10.059 7.313 21.15 7.313 32.78 0 11.632-2.614 22.721-7.313 32.782v7.938c6.512-11.487 10.22-24.564 10.22-38.407 0-13.842-3.708-26.923-10.22-38.406z" fill="#20a3d4" stroke-width=".5" filter="url(#i)" transform="matrix(-.19835 0 0 .19835 243.676 1213.811)"/></g><g transform="translate(41.906 1222.8)" id="o" font-weight="400" font-family="Nimbus Sans L"><rect rx="22.344" style="text-align:start;line-height:100%" width="307.232" height="80" x="80" y="109.505" transform="matrix(.35804 0 0 .45866 234.188 145.933)" ry="22.344" font-size="49.354" fill="url(#n) #000" stroke="#000" stroke-width="2.468" stroke-linecap="round" stroke-linejoin="round" stroke-dashoffset=".4" filter="url(#k)"/><text style="text-align:start;line-height:100%" x="299.851" y="221.435" font-size="20" fill="#fff"><tspan x="299.851" y="221.435" style="text-align:start;line-height:100%" font-weight="700" fill="#000">MS</tspan></text></g><path d="M413.269 70.849c10.64 0 19.277 8.11 19.277 18.106 0 9.996-8.637 18.112-19.277 18.112-7.991 0-14.85-4.576-17.772-11.089h-5.008c-.067-3.548.137-3.062.137-3.062l-4.141 1.635h-.422l-2.058-3.06-1.878 2.833-.608.021-2.51-2.75-3.833 3.383-1.667.001-4.38-3.489-2.938 3.195-.675-.026-1.892-1.334-2.604.995-2.294-.106-2.943-3.127-2.223 2.853h-1.376l-7.211-9.349v-2.659h50.524c2.922-6.511 9.78-11.083 17.772-11.083zm9.198 13.067a5.043 5.043 0 000 10.085 5.049 5.049 0 005.046-5.046 5.043 5.043 0 00-5.046-5.04z" fill="#ff7f00" stroke="#000" stroke-width="1.05819725" stroke-linecap="round" stroke-linejoin="round"/><path fill="#d4aa00" stroke="#000" stroke-width="1.05819725" stroke-linecap="round" stroke-linejoin="round" d="M394.51 83.583h-46.813v1.518h46.814zM394.51 86.938h-44.399v1.518h44.4z"/><path d="M517.274 337.702v11.094L480.9 395.921h-6.937l-11.188-14.375-14.844 15.75-11.562.531-13.125-5-9.563 6.72-3.375.124-14.812-16.094-22.094 17.594-8.406-.031-19.313-17.031 9.236-10.103-21.892 23.946-3.062-.093-9.47-14.282-10.374 15.438h-2.125l-20.625-8.156c.276.718.655 3.772.437 15.343h-25.25c-14.728 32.836-49.307 55.907-89.593 55.907-45.57 0-83.852-29.532-94.344-69.313 9.6 40.937 48.462 71.625 94.906 71.625 40.286 0 74.865-23.07 89.594-55.906h25.25c.21-11.18-.104-14.427-.375-15.281l20.562 8.093h2.125l10.375-15.437 9.47 14.281 3.062.094 12.656-13.844 19.344 17.031 8.406.032 22.062-17.594 14.813 16.094 3.406-.125 9.531-6.719 13.125 5 11.594-.531 14.813-15.75 11.218 14.375h6.938l36.344-47.125v-13.407h-.563zm-390.687 7.688c-14.037 0-25.438 11.37-25.438 25.406 0 2.587.374 5.084 1.094 7.438a25.52 25.52 0 01-.531-5.125c0-14.037 11.4-25.407 25.437-25.407 11.405 0 21.066 7.524 24.281 17.875-2.415-11.523-12.606-20.187-24.843-20.187z" stroke="#000" stroke-width="5.335" stroke-linecap="round" stroke-linejoin="round" filter="url(#f)" transform="matrix(-.19835 0 0 .19835 447.69 14.603)"/><path d="M173.531 283.563c-53.645 0-97.187 40.886-97.187 91.28 0 6.3.673 12.465 1.969 18.407a86.406 86.406 0 01-1.376-15.5c0-50.395 43.543-91.281 97.188-91.281 40.286 0 74.865 23.048 89.594 55.875h254.125v-2.906H263.125c-14.729-32.828-49.308-55.875-89.594-55.875zm-21.187 87.875c.152 1.124.219 2.271.219 3.437 0 14.036-11.37 25.406-25.407 25.406-11.819 0-21.744-8.066-24.594-19 1.723 12.368 12.35 21.907 25.188 21.906 14.036 0 25.406-11.37 25.406-25.406 0-2.193-.29-4.312-.812-6.344z" fill="#fff" filter="url(#g)" transform="matrix(-.19835 0 0 .19835 447.69 14.603)"/><path d="M190.997 294.922a10.674 10.674 0 00-5.468 2.812 10.572 10.572 0 00-3.22 7.625v138.532a10.6 10.6 0 003.095 7.5c-.876-1.56-1.378-3.319-1.375-5.157v-138.53a10.572 10.572 0 013.218-7.626 10.72 10.72 0 013.75-2.344v-2.812zm4.625.187v159.032a85.72 85.72 0 001.72-.438v-156.25c2.56.62 5.073 1.36 7.53 2.188v-1.75a91.096 91.096 0 00-9.25-2.782zm13.875 4.563v149.906a89.135 89.135 0 001.72-.75V302.016a89.985 89.985 0 017.53 3.562v-1.375a90.027 90.027 0 00-9.25-4.531zm13.875 7.344v135.218c.58-.374 1.151-.737 1.72-1.125V309.36a87.815 87.815 0 017.53 5.438v-.906a87.367 87.367 0 00-9.25-6.875zm13.875 11.156v112.906a88.761 88.761 0 001.72-1.75V320.516c2.536 2.505 4.929 5.127 7.124 7.906a84.34 84.34 0 00-8.844-10.25zm8.844 10.25c.138.174.27.356.406.531v-.031c-.124-.174-.28-.327-.406-.5zm5.031 7.781v76.813a79.976 79.976 0 001.72-3.22v-70.343a81.098 81.098 0 00-1.72-3.25z" fill="gray" filter="url(#h)" transform="matrix(-.19835 0 0 .19835 447.69 14.603)"/><path d="M191.497 295.422c-1.008.185-1.99.533-2.906 1v156.062a10.67 10.67 0 01-3.156-1.125c.425.486.89.937 1.406 1.344a10.573 10.573 0 004.656 2.094V295.422zm10.97 2v152.125a93.212 93.212 0 01-6.345 2.031v3.063a91.032 91.032 0 009.25-2.782V298.391c-.958-.343-1.934-.656-2.906-.97zm13.874 5.719V443.234a89.384 89.384 0 01-6.344 3.25v3.594a89.991 89.991 0 009.25-4.531V304.703a89.453 89.453 0 00-2.906-1.562zm13.875 8.937v121.438a88.84 88.84 0 01-6.344 4.906v4.312a87.5 87.5 0 009.25-6.906V314.391c-.943-.804-1.926-1.549-2.906-2.313zm7.531 6.594v.687a80.525 80.525 0 016.344 7.75v91.375c-1.941 2.709-4.07 5.282-6.344 7.75v5.344c3.382-3.343 6.502-6.948 9.25-10.781v-91.375c-2.748-3.832-5.868-7.41-9.25-10.75zm13.875 18.031v3.313c4.7 10.059 7.313 21.15 7.313 32.78 0 11.632-2.614 22.721-7.313 32.782v7.938c6.512-11.487 10.22-24.564 10.22-38.407 0-13.842-3.708-26.923-10.22-38.406z" fill="#ff7f00" filter="url(#i)" transform="matrix(-.19835 0 0 .19835 447.69 14.603)"/><path d="M381.71 12.387c-10.64 0-19.277 8.11-19.277 18.106 0 9.996 8.637 18.112 19.277 18.112 7.991 0 14.85-4.576 17.772-11.09h5.008c.067-3.547-.137-3.061-.137-3.061l4.141 1.635h.422l2.058-3.061 1.878 2.833.608.022 2.51-2.75 3.833 3.382 1.667.002 4.38-3.489 2.938 3.195.675-.026 1.892-1.334 2.604.995 2.294-.107 2.943-3.126 2.223 2.853h1.376l7.211-9.349v-2.66h-50.524c-2.922-6.51-9.78-11.082-17.772-11.082zm-9.198 13.066a5.043 5.043 0 010 10.085 5.049 5.049 0 01-5.046-5.045 5.043 5.043 0 015.046-5.04z" fill="#fc0" stroke="#000" stroke-width="1.05819725" stroke-linecap="round" stroke-linejoin="round"/><path fill="#d4aa00" stroke="#000" stroke-width="1.05819725" stroke-linecap="round" stroke-linejoin="round" d="M400.468 25.121h46.814v1.518h-46.814zM400.468 28.476h44.4v1.518h-44.4z"/><path d="M517.274 337.702v11.094L480.9 395.921h-6.937l-11.188-14.375-14.844 15.75-11.562.531-13.125-5-9.563 6.72-3.375.124-14.812-16.094-22.094 17.594-8.406-.031-19.313-17.031-12.656 13.843-3.062-.093-9.47-14.282-10.374 15.438h-2.125l-20.625-8.156c.276.718.655 3.772.437 15.343h-25.25c-14.728 32.836-49.307 55.907-89.593 55.907-45.57 0-83.852-29.532-94.344-69.313 9.6 40.937 48.462 71.625 94.906 71.625 40.286 0 74.865-23.07 89.594-55.906h25.25c.21-11.18-.104-14.427-.375-15.281l20.562 8.093h2.125l10.375-15.437 9.47 14.281 3.062.094 12.656-13.844 19.344 17.031 8.406.032 22.062-17.594 14.813 16.094 3.406-.125 9.531-6.719 13.125 5 11.594-.531 14.813-15.75 11.218 14.375h6.938l36.344-47.125v-13.407h-.563zm-390.687 7.688c-14.037 0-25.438 11.37-25.438 25.406 0 2.587.374 5.084 1.094 7.438a25.52 25.52 0 01-.531-5.125c0-14.037 11.4-25.407 25.437-25.407 11.405 0 21.066 7.524 24.281 17.875-2.415-11.523-12.606-20.187-24.843-20.187z" stroke="#000" stroke-width="5.335" stroke-linecap="round" stroke-linejoin="round" filter="url(#f)" transform="matrix(.19835 0 0 .19835 347.29 -43.859)"/><path d="M173.531 283.563c-53.645 0-97.187 40.886-97.187 91.28 0 6.3.673 12.465 1.969 18.407a86.406 86.406 0 01-1.376-15.5c0-50.395 43.543-91.281 97.188-91.281 40.286 0 74.865 23.048 89.594 55.875h254.125v-2.906H263.125c-14.729-32.828-49.308-55.875-89.594-55.875zm-21.187 87.875c.152 1.124.219 2.271.219 3.437 0 14.036-11.37 25.406-25.407 25.406-11.819 0-21.744-8.066-24.594-19 1.723 12.368 12.35 21.907 25.188 21.906 14.036 0 25.406-11.37 25.406-25.406 0-2.193-.29-4.312-.812-6.344z" fill="#fff" filter="url(#g)" transform="matrix(.19835 0 0 .19835 347.29 -43.859)"/><path d="M190.997 294.922a10.674 10.674 0 00-5.468 2.812 10.572 10.572 0 00-3.22 7.625v138.532a10.6 10.6 0 003.095 7.5c-.876-1.56-1.378-3.319-1.375-5.157v-138.53a10.572 10.572 0 013.218-7.626 10.72 10.72 0 013.75-2.344v-2.812zm4.625.187v159.032a85.72 85.72 0 001.72-.438v-156.25c2.56.62 5.073 1.36 7.53 2.188v-1.75a91.096 91.096 0 00-9.25-2.782zm13.875 4.563v149.906a89.135 89.135 0 001.72-.75V302.016a89.985 89.985 0 017.53 3.562v-1.375a90.027 90.027 0 00-9.25-4.531zm13.875 7.344v135.218c.58-.374 1.151-.737 1.72-1.125V309.36a87.815 87.815 0 017.53 5.438v-.906a87.367 87.367 0 00-9.25-6.875zm13.875 11.156v112.906a88.761 88.761 0 001.72-1.75V320.516c2.536 2.505 4.929 5.127 7.124 7.906a84.34 84.34 0 00-8.844-10.25zm8.844 10.25c.138.174.27.356.406.531v-.031c-.124-.174-.28-.327-.406-.5zm5.031 7.781v76.813a79.976 79.976 0 001.72-3.22v-70.343a81.098 81.098 0 00-1.72-3.25z" fill="gray" filter="url(#h)" transform="matrix(.19835 0 0 .19835 347.29 -43.859)"/><path d="M191.497 295.422c-1.008.185-1.99.533-2.906 1v156.062a10.67 10.67 0 01-3.156-1.125c.425.486.89.937 1.406 1.344a10.573 10.573 0 004.656 2.094V295.422zm10.97 2v152.125a93.212 93.212 0 01-6.345 2.031v3.063a91.032 91.032 0 009.25-2.782V298.391c-.958-.343-1.934-.656-2.906-.97zm13.874 5.719v140.093a89.384 89.384 0 01-6.344 3.25v3.594a89.991 89.991 0 009.25-4.531V304.703a89.453 89.453 0 00-2.906-1.562zm13.875 8.937v121.438a88.84 88.84 0 01-6.344 4.906v4.312a87.5 87.5 0 009.25-6.906V314.391c-.943-.804-1.926-1.549-2.906-2.313zm7.531 6.594v.687a80.525 80.525 0 016.344 7.75v91.375c-1.941 2.709-4.07 5.282-6.344 7.75v5.344c3.382-3.343 6.502-6.948 9.25-10.781v-91.375c-2.748-3.832-5.868-7.41-9.25-10.75zm13.875 18.031v3.313c4.7 10.059 7.313 21.15 7.313 32.78 0 11.632-2.614 22.721-7.313 32.782v7.938c6.512-11.487 10.22-24.564 10.22-38.407 0-13.842-3.708-26.923-10.22-38.406z" fill="#fd5" filter="url(#i)" transform="matrix(.19835 0 0 .19835 347.29 -43.859)"/><use xlink:href="#o" transform="translate(1119.27 2.512)" width="2081" height="1853"/><use x="0" y="0" xlink:href="#p" id="v" transform="translate(1551.68 37.398)" width="2081" height="1853"/><use xlink:href="#q" transform="translate(456.111 -1011.01)" width="2081" height="1853"/><use x="0" y="0" xlink:href="#r" id="w" transform="translate(1110.57 37.398)" width="2081" height="1853"/><use xlink:href="#s" transform="translate(1286.47 37.398)" width="2081" height="1853"/><use x="0" y="0" xlink:href="#t" id="x" transform="translate(1551.68 37.398)" width="2081" height="1853"/><use x="0" y="0" xlink:href="#u" id="y" transform="translate(0 -114.925)" width="2081" height="1853"/><use xlink:href="#v" transform="translate(0 -114.925)" width="2081" height="1853"/><use x="0" y="0" xlink:href="#w" id="z" transform="translate(0 -114.925)" width="2081" height="1853"/><use x="0" y="0" xlink:href="#x" id="A" transform="translate(0 -114.925)" width="2081" height="1853"/><use x="0" y="0" xlink:href="#y" id="B" transform="translate(0 -716.257)" width="2081" height="1853"/><use xlink:href="#z" transform="translate(0 -716.257)" width="2081" height="1853"/><use x="0" y="0" xlink:href="#A" id="C" transform="translate(0 -716.257)" width="2081" height="1853"/><use x="0" y="0" xlink:href="#B" id="D" transform="translate(0 -116.925)" width="2081" height="1853"/><use x="0" y="0" xlink:href="#C" id="E" transform="translate(0 -116.925)" width="2081" height="1853"/><use xlink:href="#D" transform="translate(-404.152 -288.499)" width="2081" height="1853"/><use x="0" y="0" xlink:href="#E" id="R" transform="translate(-312.646 -346.961)" width="2081" height="1853"/><text style="text-align:start;line-height:100%" x="133.401" y="36.736" font-size="24" font-weight="700" font-family="Nimbus Sans L"><tspan x="133.401" y="36.736">public key client</tspan></text><text style="text-align:start;line-height:100%" x="125.339" y="95.198" font-size="24" font-weight="700" font-family="Nimbus Sans L"><tspan x="125.339" y="95.198">private key client</tspan></text><text style="text-align:start;line-height:100%" x="1485.66" y="36.736" font-size="24" font-weight="700" font-family="Nimbus Sans L"><tspan x="1485.66" y="36.736">public key server</tspan></text><text style="text-align:start;line-height:100%" x="1485.22" y="95.054" font-size="24" font-weight="700" font-family="Nimbus Sans L"><tspan x="1485.22" y="95.054">private key server</tspan></text><text style="text-align:start;line-height:100%" x="462.615" y="78.499" font-size="24" font-weight="700" font-family="Nimbus Sans L"><tspan x="462.615" y="78.499" font-size="52">Client</tspan></text><text y="74.499" x="1205.04" style="text-align:start;line-height:100%" font-size="24" font-weight="700" font-family="Nimbus Sans L"><tspan y="74.499" x="1205.04" font-size="52">Server</tspan></text><use xlink:href="#F" transform="translate(1061.744 389.138) scale(.53653)" width="2081" height="1853"/><text style="text-align:start;line-height:100%" x="1980.09" y="391.107" font-size="24" font-style="italic" font-weight="400" fill="#0000a0" font-family="Nimbus Sans L"><tspan x="1980.09" y="391.107" font-size="44" font-style="normal">Phase 1</tspan></text><text y="1677.73" x="1980.09" style="text-align:start;line-height:100%" font-size="24" font-style="italic" font-weight="400" fill="#0000a0" font-family="Nimbus Sans L"><tspan y="1677.73" x="1980.09" font-size="44" font-style="normal">Phase 4</tspan></text><text style="text-align:start;line-height:100%" x="1980.09" y="1186.47" font-size="24" font-style="italic" font-weight="400" fill="#0000a0" font-family="Nimbus Sans L"><tspan x="1980.09" y="1186.47" font-size="44" font-style="normal">Phase 3</tspan></text><text y="729.964" x="1980.09" style="text-align:start;line-height:100%" font-size="24" font-style="italic" font-weight="400" fill="#0000a0" font-family="Nimbus Sans L"><tspan y="729.964" x="1980.09" font-size="44" font-style="normal">Phase 2</tspan></text><use height="1853" width="2081" transform="translate(512.062 -929.764)" xlink:href="#q"/><use xlink:href="#F" transform="translate(0 -471.94)" width="2193.981" height="1839.809"/><use xlink:href="#p" transform="translate(0 -471.94)" width="2193.981" height="1839.809"/><use xlink:href="#q" transform="translate(0 -471.94)" width="2193.981" height="1839.809"/><use xlink:href="#r" transform="translate(0 -471.94)" width="2193.981" height="1839.809"/><use xlink:href="#t" transform="translate(0 -471.94)" width="2193.981" height="1839.809"/><use height="1839.809" width="2193.981" transform="translate(0 -769.742)" xlink:href="#F"/><use height="1839.809" width="2193.981" transform="translate(0 -769.742)" xlink:href="#p"/><use height="1839.809" width="2193.981" transform="translate(0 -769.742)" xlink:href="#q"/><use height="1839.809" width="2193.981" transform="translate(0 -769.742)" xlink:href="#r"/><use xlink:href="#F" transform="translate(0 -976.689)" width="2193.981" height="1839.809"/><use xlink:href="#p" transform="translate(0 -976.689)" width="2193.981" height="1839.809"/><use xlink:href="#q" transform="translate(0 -976.688)" width="2193.981" height="1839.809"/><use height="1853" width="2081" transform="translate(934.664 37.399)" xlink:href="#q"/><use xlink:href="#q" transform="translate(934.664 -910.707)" width="2081" height="1853"/><use height="1853" width="2081" transform="translate(934.664 -793.782)" xlink:href="#q"/><use xlink:href="#q" transform="translate(934.664 -77.526)" width="2081" height="1853"/></g><g transform="translate(54.379 -11.858)"><text y="312.824" x="593.785" style="text-align:start;line-height:100%" font-size="24" font-style="italic" font-weight="400" font-family="Nimbus Sans L" transform="translate(-10 -30.404)"><tspan y="312.824" x="593.785">generate random number</tspan></text><path d="M530.744 190.638v1657.278" id="I" fill="#000" fill-opacity="1" fill-rule="evenodd" stroke="#000" stroke-width="3" stroke-linecap="butt" stroke-linejoin="miter" marker-end="url(#G)" stroke-miterlimit="2" stroke-dasharray="none" stroke-opacity="1" display="inline"/><use xlink:href="#H" transform="translate(0 304.853)" width="2081" height="1853"/><use xlink:href="#I" transform="translate(758.924)" width="2081" height="1853"/><path d="M531.244 945.564h754.926" id="L" fill="#000" fill-opacity="1" fill-rule="evenodd" stroke="#000" stroke-width="3" stroke-linecap="butt" stroke-linejoin="miter" marker-end="url(#G)" stroke-miterlimit="2" stroke-dasharray="none" stroke-opacity="1" display="inline"/><path id="K" d="M532.994 722.392h754.926" fill="#000" fill-opacity="1" fill-rule="evenodd" stroke="#000" stroke-width="3" stroke-linecap="butt" stroke-linejoin="miter" marker-start="url(#J)" marker-end="none" stroke-miterlimit="2" stroke-dasharray="none" stroke-opacity="1" display="inline"/><use xlink:href="#K" transform="translate(0 -78.797)" width="2081" height="1853"/><use height="1853" width="2081" transform="translate(0 -195.722)" xlink:href="#K"/><use xlink:href="#K" transform="translate(0 981.15)" width="2081" height="1853"/><use height="1853" width="2081" transform="translate(0 1054.86)" xlink:href="#K"/><use xlink:href="#L" transform="translate(0 152.51)" width="2081" height="1853"/><use height="1853" width="2081" transform="translate(0 373.65)" xlink:href="#L"/><use xlink:href="#L" transform="translate(0 607.499)" width="2081" height="1853"/><use height="1853" width="2081" transform="translate(0 681.213)" xlink:href="#L"/><use xlink:href="#L" transform="translate(0 -569.372)" width="2081" height="1853"/><path d="M534.311 314.977c81.654-26.585-1.661-76.194-1.661-76.194" id="N" fill="none" fill-opacity=".75" fill-rule="evenodd" stroke="#000" stroke-width="3" stroke-linecap="round" stroke-linejoin="miter" marker-start="url(#M)" marker-end="none" stroke-miterlimit="1" stroke-dasharray="none" stroke-opacity="1"/><use xlink:href="#N" transform="translate(0 512.575)" width="2081" height="1853"/><use height="1853" width="2081" transform="translate(0 948.106)" xlink:href="#N"/><use xlink:href="#N" transform="translate(0 1123.49)" width="2081" height="1853"/><path id="O" d="M1287.982 479.487c-81.653-26.585 1.662-76.194 1.662-76.194" fill="none" fill-opacity=".75" fill-rule="evenodd" stroke="#000" stroke-width="3" stroke-linecap="round" stroke-linejoin="miter" marker-start="url(#M)" marker-end="none" stroke-miterlimit="1" stroke-dasharray="none" stroke-opacity="1"/><use xlink:href="#O" transform="translate(0 564.288)" width="2081" height="1853"/><use height="1853" width="2081" transform="translate(0 714.257)" xlink:href="#O"/><use xlink:href="#O" transform="translate(0 959.008)" width="2081" height="1853"/><text y="356.436" x="744.773" style="text-align:start;line-height:100%" font-size="24" font-style="italic" font-weight="400" font-family="Nimbus Sans L" transform="translate(-164.061 8)"><tspan y="356.436" x="744.773">client_hello (crypto information,</tspan></text><rect transform="matrix(.35804 0 0 .45866 1123.381 373.063)" y="109.505" x="80" height="80" width="242.857" style="text-align:start;line-height:100%" rx="22.344" ry="22.344" font-size="49.354" font-weight="400" fill="url(#P)" stroke="#000" stroke-width="2.468" stroke-linecap="round" stroke-linejoin="round" stroke-dashoffset=".4" filter="url(#k)" font-family="Nimbus Sans L"/><text y="449.414" x="1175.143" style="text-align:start;line-height:100%" font-size="20" font-weight="400" fill="#fff" font-family="Nimbus Sans L"><tspan style="text-align:start;line-height:100%" y="449.414" x="1175.143"><tspan font-weight="700">RN</tspan><tspan font-size="16">s</tspan></tspan></text><text style="text-align:start;line-height:100%" x="872.945" y="446.903" font-size="24" font-style="italic" font-weight="400" font-family="Nimbus Sans L"><tspan x="872.945" y="446.903">generate random number</tspan></text><g font-weight="400" font-family="Nimbus Sans L"><g transform="translate(984.44 357.424)"><rect ry="22.344" rx="22.344" style="text-align:start;line-height:100%" width="242.857" height="80" x="80" y="109.505" transform="matrix(.35804 0 0 .45866 124.979 82.376)" font-size="49.354" fill="url(#Q) #000" stroke="#000" stroke-width="2.468" stroke-linecap="round" stroke-linejoin="round" stroke-dashoffset=".4" filter="url(#k)"/><text style="text-align:start;line-height:100%" x="176.741" y="158.727" font-size="20" fill="#fff"><tspan x="176.741" y="158.727" style="text-align:start;line-height:100%"><tspan font-weight="700">RN</tspan><tspan font-size="16">s</tspan></tspan></text></g><text y="516.409" x="784.426" style="text-align:start;line-height:100%" font-size="24" font-style="italic" transform="translate(7 -2)"><tspan y="516.409" x="784.426">server_hello (crypto information,</tspan></text><text style="text-align:start;line-height:100%" x="1221" y="516.589" font-size="24" font-style="italic" transform="translate(7 -2)"><tspan x="1221" y="516.589">)</tspan></text></g><use x="0" y="0" xlink:href="#R" id="S" transform="matrix(.51482 0 0 .51482 469.566 610.527)" width="2081" height="1853" display="inline"/><text style="text-align:start;line-height:100%" x="940.911" y="633.355" font-size="24" font-style="italic" font-weight="400" font-family="Nimbus Sans L"><tspan x="940.911" y="633.355">server certificate (incl.</tspan></text><use height="1853" width="2081" transform="translate(-342.064 675.314)" xlink:href="#S"/><text style="text-align:start;line-height:100%" x="976.786" y="710.112" font-size="24" font-style="italic" font-weight="400" font-family="Nimbus Sans L"><tspan x="976.786" y="710.112">demand client certificate</tspan></text><text style="text-align:start;line-height:100%" x="580.713" y="797.539" font-size="24" font-style="italic" font-weight="400" font-family="Nimbus Sans L"><tspan x="580.713" y="797.539">check server certificate</tspan></text><g transform="translate(-229.776)"><use height="1853" width="2081" transform="matrix(.49466 0 0 .49466 1012.48 289.44)" xlink:href="#p"/><text y="933.768" x="810.489" style="text-align:start;line-height:100%" font-size="24" font-style="italic" font-weight="400" font-family="Nimbus Sans L"><tspan y="933.768" x="810.489">client certificate (incl.</tspan></text></g><text style="text-align:start;line-height:100%" x="1000.88" y="1013.96" font-size="24" font-style="italic" font-weight="400" font-family="Nimbus Sans L"><tspan x="1000.88" y="1013.96">check client certificate</tspan></text><text style="text-align:start;line-height:100%" x="543.5" y="1085.586" font-size="24" font-style="italic" font-weight="400" font-family="Nimbus Sans L"><tspan x="543.5" y="1085.586">hash over all previous messages (signed with</tspan></text><text style="text-align:start;line-height:100%" x="964.755" y="1163.93" font-size="24" font-style="italic" font-weight="400" font-family="Nimbus Sans L"><tspan x="964.755" y="1163.93">check hash and signature</tspan></text><g transform="translate(0 -20.608)"><use height="1853" width="2081" transform="translate(367.098 -53.676)" xlink:href="#T"/><text y="1251.13" x="583.785" style="text-align:start;line-height:100%" font-size="24" font-style="italic" font-weight="400" font-family="Nimbus Sans L"><tspan y="1251.13" x="583.785">generate random number pre-master-secret</tspan></text></g><g transform="translate(-111.664 2)"><use height="1853" width="2081" transform="translate(463.698 11.378)" id="T" xlink:href="#s" y="0" x="0" display="inline"/><text y="1305.58" x="783.336" style="text-align:start;line-height:100%" font-size="24" font-style="italic" font-weight="400" font-family="Nimbus Sans L"><tspan y="1305.58" x="783.336">encrypted with</tspan></text></g><g transform="translate(-25.901 .097)"><text y="1407.86" x="649.071" style="text-align:start;line-height:100%" font-size="24" font-style="italic" font-weight="400" font-family="Nimbus Sans L"><tspan y="1407.86" x="649.071">calculate Master-Secret from</tspan></text><a transform="translate(1278.28 1301.53)"><g transform="translate(-402.937 -52.604)" font-weight="400" font-family="Nimbus Sans L"><rect style="text-align:start;line-height:100%" width="242.857" height="80" x="80" y="109.505" transform="matrix(.35804 0 0 .45866 236.751 82.627)" rx="22.344" ry="22.344" font-size="49.354" fill="url(#U) #000" stroke="#000" stroke-width="2.468" stroke-linecap="round" stroke-linejoin="round" stroke-dashoffset=".4" filter="url(#k)"/><text style="text-align:start;line-height:100%" x="288.505" y="157.354" font-size="20"><tspan x="288.505" y="157.354" style="text-align:start;line-height:100%"><tspan font-weight="700">RN</tspan><tspan font-size="16">c</tspan></tspan></text></g></a><g transform="translate(899.162 1249.18)" font-weight="400" font-family="Nimbus Sans L"><rect ry="22.344" rx="22.344" style="text-align:start;line-height:100%" width="242.857" height="80" x="80" y="109.505" transform="matrix(.35804 0 0 .45866 124.979 82.376)" font-size="49.354" fill="url(#V) #000" stroke="#000" stroke-width="2.468" stroke-linecap="round" stroke-linejoin="round" stroke-dashoffset=".4" filter="url(#k)"/><text style="text-align:start;line-height:100%" x="176.741" y="158.727" font-size="20" fill="#fff"><tspan x="176.741" y="158.727" style="text-align:start;line-height:100%"><tspan font-weight="700">RN</tspan><tspan font-size="16">s</tspan></tspan></text></g><g transform="translate(811.26 1185.62)" font-weight="400" font-family="Nimbus Sans L"><rect rx="22.344" style="text-align:start;line-height:100%" width="242.857" height="80" x="80" y="109.505" transform="matrix(.35804 0 0 .45866 124.93 145.933)" ry="22.344" font-size="49.354" fill="url(#W) #000" stroke="#000" stroke-width="2.468" stroke-linecap="round" stroke-linejoin="round" stroke-dashoffset=".4" filter="url(#k)"/><text style="text-align:start;line-height:100%" x="172.289" y="221.435" font-size="20" fill="#fff"><tspan x="172.289" y="221.435" style="text-align:start;line-height:100%" font-weight="700">PMS</tspan></text></g></g><text style="text-align:start;line-height:100%" x="580.449" y="1614.83" font-size="24" font-style="italic" font-weight="400" font-family="Nimbus Sans L"><tspan x="580.449" y="1614.83">end SSL handshake</tspan></text><text style="text-align:start;line-height:100%" x="1019.4" y="1766.72" font-size="24" font-style="italic" font-weight="400" font-family="Nimbus Sans L"><tspan x="1019.4" y="1766.72">end SSL handshake</tspan></text><path d="M-53.379 566.416h1939.423" id="H" fill="none" fill-opacity=".75" fill-rule="evenodd" stroke="#0000a0" stroke-width="2" stroke-linecap="round" stroke-linejoin="miter" stroke-miterlimit="4" stroke-dasharray="2,6" stroke-dashoffset="0" stroke-opacity="1"/><use xlink:href="#H" transform="translate(0 909.643)" width="2081" height="1853"/><g fill="none" stroke="#0000a0" stroke-width="16.997"><path d="M989.923 124.973C985.26 2.609 1109.39 5.506 1109.39 5.506h283.603C1522.395 6.543 1511-93.625 1511-93.625M2045.842 124.973C2050.505 2.609 1926.375 5.506 1926.375 5.506h-283.602c-129.403 1.037-118.008-99.131-118.008-99.131" transform="matrix(0 .28138 -.30754 0 1924.32 288.235)"/></g><g fill="none" stroke="#0000a0" stroke-width="11.991"><path d="M989.923 124.973C985.247 2.609 1109.725 5.506 1109.725 5.506h284.396c129.766 1.037 118.34-99.131 118.34-99.131" transform="matrix(0 .5654 -.30754 0 1924.32 313.638)"/><path d="M2045.84 124.973C2050.53 2.609 1925.706 5.506 1925.706 5.506h-285.191c-130.129 1.037-118.67-99.131-118.67-99.131" transform="matrix(0 .5654 -.30754 0 1924.32 313.638)"/></g><g fill="none" stroke="#0000a0" stroke-width="15.188"><path d="M989.923 124.973C985.26 2.609 1109.39 5.506 1109.39 5.506h283.603C1522.395 6.543 1511-93.625 1511-93.625M2045.842 124.973C2050.505 2.609 1926.375 5.506 1926.375 5.506h-283.602c-129.403 1.037-118.008-99.131-118.008-99.131" transform="matrix(0 .35238 -.30754 0 1924.32 1126.59)"/></g><g fill="none" stroke="#0000a0" stroke-width="15.24"><path d="M989.923 124.973C985.26 2.609 1109.39 5.506 1109.39 5.506h283.603C1522.395 6.543 1511-93.625 1511-93.625M2045.842 124.973C2050.505 2.609 1926.375 5.506 1926.375 5.506h-283.602c-129.403 1.037-118.008-99.131-118.008-99.131" transform="matrix(0 .35002 -.30754 0 1924.32 -154.806)"/></g><use height="1853" width="2081" transform="translate(672.798 95.8)" xlink:href="#o"/><text y="1538.37" x="580.713" style="text-align:start;line-height:100%" font-size="24" font-style="italic" font-weight="400" font-family="Nimbus Sans L"><tspan y="1538.37" x="580.713">change to encrypted connection with</tspan></text><text y="1537.87" x="1092.83" style="text-align:start;line-height:100%" font-size="24" font-style="italic" font-weight="400" font-family="Nimbus Sans L"><tspan y="1537.87" x="1092.83">as key</tspan></text><text style="text-align:start;line-height:100%" x="1228.6" y="632.443" font-size="24" font-style="italic" font-weight="400" font-family="Nimbus Sans L"><tspan x="1228.6" y="632.443">)</tspan></text><text style="text-align:start;line-height:100%" x="853.222" y="932.856" font-size="24" font-style="italic" font-weight="400" font-family="Nimbus Sans L"><tspan x="853.222" y="932.856">)</tspan></text><text style="text-align:start;line-height:100%" x="1005.44" y="364.616" font-size="24" font-style="italic" font-weight="400" font-family="Nimbus Sans L"><tspan x="1005.44" y="364.616">)</tspan></text><text style="text-align:start;line-height:100%" x="1098.413" y="1085.706" font-size="24" font-style="italic" font-weight="400" font-family="Nimbus Sans L"><tspan x="1098.413" y="1085.706">)</tspan></text><g transform="translate(75.11 151.677)"><use xlink:href="#o" transform="translate(672.798 95.8)" width="2081" height="1853"/><text style="text-align:start;line-height:100%" x="580.713" y="1538.37" font-size="24" font-style="italic" font-weight="400" font-family="Nimbus Sans L"><tspan x="580.713" y="1538.37">change to encrypted connection with</tspan></text><text style="text-align:start;line-height:100%" x="1092.83" y="1537.87" font-size="24" font-style="italic" font-weight="400" font-family="Nimbus Sans L"><tspan x="1092.83" y="1537.87">as key</tspan></text></g></g></svg>