<svg xmlns="http://www.w3.org/2000/svg" version="1.0" width="1084" height="817"><path fill="#cdffff" stroke="#000" stroke-linecap="round" stroke-dasharray="6,6" d="M692.236 451.277h297.501v281.018H692.236zM88.123 452.127h565.714v280.517H88.123z"/><path fill="#feff00" stroke="#000" stroke-linecap="round" d="M463.314 123.558h135.547v30.043H463.314z"/><path fill="#00f900" stroke="#000" stroke-linecap="round" d="M449.027 305.607h164.122v29.945H449.027z"/><path fill="#fe6500" stroke="#000" stroke-linecap="round" d="M463.314 49.558h135.547v30.043H463.314z"/><text x="329.097" y="193.809" font-size="16.794" font-weight="700" font-family="Arial" transform="translate(167 -123.862)"><tspan x="329.097" y="193.809">CLOSED</tspan></text><text x="246.634" y="191.602" font-size="14.794" font-weight="700" font-family="Arial" transform="translate(167 -123.862)"><tspan x="246.634" y="191.602">(Start)</tspan></text><text x="261.277" y="222.389" font-size="14.794" font-weight="700" font-family="Arial" transform="translate(167 -123.862)"><tspan x="261.277" y="222.389">LISTEN/-</tspan></text><text x="408.832" y="235.53" font-size="14.794" font-weight="700" font-family="Arial" transform="translate(167 -123.862)"><tspan x="408.832" y="235.53">CLOSE/-</tspan></text><text x="334.255" y="268.15" font-size="16.794" font-weight="700" font-family="Arial" transform="translate(167 -123.862)"><tspan x="334.255" y="268.15">LISTEN</tspan></text><g fill="#0001f6" stroke="#0001f6" fill-rule="evenodd"><path d="M497.75 83.344v35.312h1V83.344h-1z"/><path d="M498.235 108.645l-4-4 4 14 4-14-4 4z" stroke-width=".8pt"/></g><g stroke="#000" fill-rule="evenodd"><path d="M564.5 87.013h1v-1h-1v1zm0 4h1v-1h-1v1zm0 4h1v-1h-1v1zm0 4h1v-1h-1v1zm0 4h1v-1h-1v1zm0 4h1v-1h-1v1zm0 4h1v-1h-1v1zm0 4h1v-1h-1v1zm0 4h1v-1h-1v1z" stroke-dasharray="1,3"/><path d="M564.986 93.728l4 4-4-14-4 14 4-4z" stroke-width=".8pt"/></g><g fill="#0001f6" stroke="#0001f6" fill-rule="evenodd"><path d="M198.125 138.406v56.47h1v-55.47h260.438v-1H198.125z"/><path d="M198.618 184.864l-4-4 4 14 4-14-4 4z" stroke-width=".8pt"/></g><g stroke="#000" fill-rule="evenodd"><path d="M497.375 157.188h1v-1h-1v1zm0 4h1v-1h-1v1zm0 4h1v-1h-1v1zm0 4h1v-1h-1v1zm0 4h1v-1h-1v1zm0 4h1v-1h-1v1zm0 4h1v-1h-1v1zm0 4h1v-1h-1v1zm0 4h1v-1h-1v1zm0 4h1v-1h-1v1zm0 4h1v-1h-1v1zm0 4h1v-1h-1v1zm0 4h1v-1h-1v1zm0 4h1v-1h-1v1zm0 4h1v-1h-1v1zm-222.313 1.687h1v-1h-1v1zm4 0h1v-1h-1v1zm4 0h1v-1h-1v1zm4 0h1v-1h-1v1zm4 0h1v-1h-1v1zm4 0h1v-1h-1v1zm4 0h1v-1h-1v1zm4 0h1v-1h-1v1zm4 0h1v-1h-1v1zm4 0h1v-1h-1v1zm4 0h1v-1h-1v1zm4 0h1v-1h-1v1zm4 0h1v-1h-1v1zm4 0h1v-1h-1v1zm4 0h1v-1h-1v1zm4 0h1v-1h-1v1zm4 0h1v-1h-1v1zm4 0h1v-1h-1v1zm4 0h1v-1h-1v1zm4 0h1v-1h-1v1zm4 0h1v-1h-1v1zm4 0h1v-1h-1v1zm4 0h1v-1h-1v1zm4 0h1v-1h-1v1zm4 0h1v-1h-1v1zm4 0h1v-1h-1v1zm4 0h1v-1h-1v1zm4 0h1v-1h-1v1zm4 0h1v-1h-1v1zm4 0h1v-1h-1v1zm4 0h1v-1h-1v1zm4 0h1v-1h-1v1zm4 0h1v-1h-1v1zm4 0h1v-1h-1v1zm4 0h1v-1h-1v1zm4 0h1v-1h-1v1zm4 0h1v-1h-1v1zm4 0h1v-1h-1v1zm4 0h1v-1h-1v1zm4 0h1v-1h-1v1zm4 0h1v-1h-1v1zm4 0h1v-1h-1v1zm4 0h1v-1h-1v1zm4 0h1v-1h-1v1zm4 0h1v-1h-1v1zm4 0h1v-1h-1v1zm4 0h1v-1h-1v1zm4 0h1v-1h-1v1zm4 0h1v-1h-1v1zm4 0h1v-1h-1v1zm4 0h1v-1h-1v1zm4 0h1v-1h-1v1zm4 0h1v-1h-1v1zm4 0h1v-1h-1v1zm4 0h1v-1h-1v1zm4 0h1v-1h-1v1z" stroke-dasharray="1,3"/><path d="M497.375 167.188l4 4-4-14-4 14 4-4z" stroke-width=".8pt"/></g><path fill="silver" stroke="#000" d="M131.411 199.369h135.541v60.449H131.411z"/><text x="31.989" y="347.249" style="text-align:center" font-size="16.794" font-weight="700" text-anchor="middle" font-family="Arial" transform="translate(167 -123.862)"><tspan x="31.989" y="347.249">SYN</tspan><tspan x="31.989" y="368.242">RECEIVED</tspan></text><g stroke="#000" fill-rule="evenodd"><path d="M564.094 157.2h1v-1h-1v1zm0 4h1v-1h-1v1zm0 4h1v-1h-1v1zm0 4h1v-1h-1v1zm0 4h1v-1h-1v1zm0 4h1v-1h-1v1zm0 4h1v-1h-1v1zm0 4h1v-1h-1v1zm0 4h1v-1h-1v1zm0 4h1v-1h-1v1zm0 4h1v-1h-1v1zm0 4h1v-1h-1v1zm0 4h1v-1h-1v1zm0 4h1v-1h-1v1zm0 4h1v-1h-1v1zm2.281 1.688h1v-1h-1v1zm4 0h1v-1h-1v1zm4 0h1v-1h-1v1zm4 0h1v-1h-1v1zm4 0h1v-1h-1v1zm4 0h1v-1h-1v1zm4 0h1v-1h-1v1zm4 0h1v-1h-1v1zm4 0h1v-1h-1v1zm4 0h1v-1h-1v1zm4 0h1v-1h-1v1zm4 0h1v-1h-1v1zm4 0h1v-1h-1v1zm4 0h1v-1h-1v1zm4 0h1v-1h-1v1zm4 0h1v-1h-1v1zm4 0h1v-1h-1v1zm4 0h1v-1h-1v1zm4 0h1v-1h-1v1zm4 0h1v-1h-1v1zm4 0h1v-1h-1v1zm4 0h1v-1h-1v1zm4 0h1v-1h-1v1zm4 0h1v-1h-1v1zm4 0h1v-1h-1v1zm4 0h1v-1h-1v1zm4 0h1v-1h-1v1zm4 0h1v-1h-1v1zm4 0h1v-1h-1v1zm4 0h1v-1h-1v1zm4 0h1v-1h-1v1zm4 0h1v-1h-1v1zm4 0h1v-1h-1v1zm4 0h1v-1h-1v1zm4 0h1v-1h-1v1zm4 0h1v-1h-1v1zm4 0h1v-1h-1v1zm4 0h1v-1h-1v1zm4 0h1v-1h-1v1zm4 0h1v-1h-1v1zm4 0h1v-1h-1v1zm4 0h1v-1h-1v1zm4 0h1v-1h-1v1zm4 0h1v-1h-1v1zm4 0h1v-1h-1v1zm4 0h1v-1h-1v1zm4 0h1v-1h-1v1zm4 0h1v-1h-1v1zm4 0h1v-1h-1v1zm4 0h1v-1h-1v1zm4 0h.594v-1h-.594v1z" stroke-dasharray="1,3"/><path d="M756.956 214.388l-4 4 14-4-14-4 4 4z" stroke-width=".8pt"/></g><g stroke="#000" fill-rule="evenodd"><path d="M275.313 244.031h1v-1h-1v1zm4 0h1v-1h-1v1zm4 0h1v-1h-1v1zm4 0h1v-1h-1v1zm4 0h1v-1h-1v1zm4 0h1v-1h-1v1zm4 0h1v-1h-1v1zm4 0h1v-1h-1v1zm4 0h1v-1h-1v1zm4 0h1v-1h-1v1zm4 0h1v-1h-1v1zm4 0h1v-1h-1v1zm4 0h1v-1h-1v1zm4 0h1v-1h-1v1zm4 0h1v-1h-1v1zm4 0h1v-1h-1v1zm4 0h1v-1h-1v1zm4 0h1v-1h-1v1zm4 0h1v-1h-1v1zm4 0h1v-1h-1v1zm4 0h1v-1h-1v1zm4 0h1v-1h-1v1zm4 0h1v-1h-1v1zm4 0h1v-1h-1v1zm4 0h1v-1h-1v1zm4 0h1v-1h-1v1zm4 0h1v-1h-1v1zm4 0h1v-1h-1v1zm4 0h1v-1h-1v1zm4 0h1v-1h-1v1zm4 0h1v-1h-1v1zm4 0h1v-1h-1v1zm4 0h1v-1h-1v1zm4 0h1v-1h-1v1zm4 0h1v-1h-1v1zm4 0h1v-1h-1v1zm4 0h1v-1h-1v1zm4 0h1v-1h-1v1zm4 0h1v-1h-1v1zm4 0h1v-1h-1v1zm4 0h1v-1h-1v1zm4 0h1v-1h-1v1zm4 0h1v-1h-1v1zm4 0h1v-1h-1v1zm4 0h1v-1h-1v1zm4 0h1v-1h-1v1zm4 0h1v-1h-1v1zm4 0h1v-1h-1v1zm4 0h1v-1h-1v1zm4 0h1v-1h-1v1zm4 0h1v-1h-1v1zm4 0h1v-1h-1v1zm4 0h1v-1h-1v1zm4 0h1v-1h-1v1zm4 0h1v-1h-1v1zm4 0h1v-1h-1v1zm4 0h1v-1h-1v1zm4 0h1v-1h-1v1zm4 0h1v-1h-1v1zm4 0h1v-1h-1v1zm4 0h1v-1h-1v1zm4 0h1v-1h-1v1zm4 0h1v-1h-1v1zm4 0h1v-1h-1v1zm4 0h1v-1h-1v1zm4 0h1v-1h-1v1zm4 0h1v-1h-1v1zm4 0h1v-1h-1v1zm4 0h1v-1h-1v1zm4 0h1v-1h-1v1zm4 0h1v-1h-1v1zm4 0h1v-1h-1v1zm4 0h1v-1h-1v1zm4 0h1v-1h-1v1zm4 0h1v-1h-1v1zm4 0h1v-1h-1v1zm4 0h1v-1h-1v1zm4 0h1v-1h-1v1zm4 0h1v-1h-1v1zm4 0h1v-1h-1v1zm4 0h1v-1h-1v1zm4 0h1v-1h-1v1zm4 0h1v-1h-1v1zm4 0h1v-1h-1v1zm4 0h1v-1h-1v1zm4 0h1v-1h-1v1zm4 0h1v-1h-1v1zm4 0h1v-1h-1v1zm4 0h1v-1h-1v1zm4 0h1v-1h-1v1zm4 0h1v-1h-1v1zm4 0h1v-1h-1v1zm4 0h1v-1h-1v1zm4 0h1v-1h-1v1zm4 0h1v-1h-1v1zm4 0h1v-1h-1v1zm4 0h1v-1h-1v1zm4 0h1v-1h-1v1zm4 0h1v-1h-1v1zm4 0h1v-1h-1v1zm4 0h1v-1h-1v1zm4 0h1v-1h-1v1zm4 0h1v-1h-1v1zm4 0h1v-1h-1v1zm4 0h1v-1h-1v1zm4 0h1v-1h-1v1zm4 0h1v-1h-1v1zm4 0h1v-1h-1v1zm4 0h1v-1h-1v1zm4 0h1v-1h-1v1zm4 0h1v-1h-1v1zm4 0h1v-1h-1v1zm4 0h1v-1h-1v1zm4 0h1v-1h-1v1zm4 0h1v-1h-1v1zm4 0h1v-1h-1v1zm4 0h1v-1h-1v1zm4 0h1v-1h-1v1zm4 0h1v-1h-1v1zm4 0h1v-1h-1v1zm4 0h1v-1h-1v1zm4 0h1v-1h-1v1zm4 0h1v-1h-1v1zm4 0h1v-1h-1v1z" stroke-dasharray="1,3"/><path d="M282.393 243.542l4-4-14 4 14 4-4-4z" stroke-width=".8pt"/></g><path fill="silver" stroke="#000" d="M771.411 199.369h135.541v60.449H771.411z"/><text x="672.038" y="347.249" style="text-align:center" font-size="16.794" font-weight="700" text-anchor="middle" font-family="Arial" transform="translate(167 -123.862)"><tspan x="672.038" y="347.249">SYN</tspan><tspan x="672.038" y="368.242">SENT</tspan></text><g fill="brown" stroke="brown" fill-rule="evenodd"><path d="M602.656 55.594v1h269.782v138.625h1V55.594H602.656z"/><path d="M872.931 185.223l-4-4 4 14 4-14-4 4z" stroke-width=".8pt"/></g><g stroke="#000" fill-rule="evenodd"><path d="M604.781 71.469h.969v-1h-.969v1zm3.969 0h1v-1h-1v1zm4 0h1v-1h-1v1zm4 0h1v-1h-1v1zm4 0h1v-1h-1v1zm4 0h1v-1h-1v1zm4 0h1v-1h-1v1zm4 0h1v-1h-1v1zm4 0h1v-1h-1v1zm4 0h1v-1h-1v1zm4 0h1v-1h-1v1zm4 0h1v-1h-1v1zm4 0h1v-1h-1v1zm4 0h1v-1h-1v1zm4 0h1v-1h-1v1zm4 0h1v-1h-1v1zm4 0h1v-1h-1v1zm4 0h1v-1h-1v1zm4 0h1v-1h-1v1zm4 0h1v-1h-1v1zm4 0h1v-1h-1v1zm4 0h1v-1h-1v1zm4 0h1v-1h-1v1zm4 0h1v-1h-1v1zm4 0h1v-1h-1v1zm4 0h1v-1h-1v1zm4 0h1v-1h-1v1zm4 0h1v-1h-1v1zm4 0h1v-1h-1v1zm4 0h1v-1h-1v1zm4 0h1v-1h-1v1zm4 0h1v-1h-1v1zm4 0h1v-1h-1v1zm4 0h1v-1h-1v1zm4 0h1v-1h-1v1zm4 0h1v-1h-1v1zm4 0h1v-1h-1v1zm4 0h1v-1h-1v1zm4 0h1v-1h-1v1zm4 0h1v-1h-1v1zm4 0h1v-1h-1v1zm4 0h1v-1h-1v1zm4 0h1v-1h-1v1zm4 0h1v-1h-1v1zm4 0h1v-1h-1v1zm4 0h1v-1h-1v1zm4 0h1v-1h-1v1zm4 0h1v-1h-1v1zm4 0h1v-1h-1v1zm4 0h1v-1h-1v1zm4 0h1v-1h-1v1zm.781 3.219h1v-1h-1v1zm0 4h1v-1h-1v1zm0 4h1v-1h-1v1zm0 4h1v-1h-1v1zm0 4h1v-1h-1v1zm0 4h1v-1h-1v1zm0 4h1v-1h-1v1zm0 4h1v-1h-1v1zm0 4h1v-1h-1v1zm0 4h1v-1h-1v1zm0 4h1v-1h-1v1zm0 4h1v-1h-1v1zm0 4h1v-1h-1v1zm0 4h1v-1h-1v1zm0 4h1v-1h-1v1zm0 4h1v-1h-1v1zm0 4h1v-1h-1v1zm0 4h1v-1h-1v1zm0 4h1v-1h-1v1zm0 4h1v-1h-1v1zm0 4h1v-1h-1v1zm0 4h1v-1h-1v1zm0 4h1v-1h-1v1zm0 4h1v-1h-1v1zm0 4h1v-1h-1v1zm0 4h1v-1h-1v1zm0 4h1v-1h-1v1zm0 4h1v-1h-1v1zm0 4h1v-1h-1v1zm0 4h1v-1h-1v1zm0 4h1v-1h-1v1z" stroke-dasharray="1,3"/><path d="M614.786 70.973l4-4-14 4 14 4-4-4z" stroke-width=".8pt"/></g><text x="467.984" y="172.875" font-size="14.794" font-weight="700" font-family="Arial" transform="translate(167 -123.862)"><tspan x="467.984" y="172.875">CONNECT/</tspan></text><text x="585.022" y="171.643" font-size="13.119" font-style="italic" font-weight="400" font-family="Courier New" transform="translate(167 -123.862)"><tspan x="585.022" y="171.643">(Step 1 of the 3-way-handshake)</tspan></text><g stroke="#000" fill-rule="evenodd"><path d="M153.469 261.531h1v-1h-1v1zm0 4h1v-1h-1v1zm0 4h1v-1h-1v1zm0 4h1v-1h-1v1zm0 4h1v-1h-1v1zm0 4h1v-1h-1v1zm0 4h1v-1h-1v1zm0 4h1v-1h-1v1zm0 4h1v-1h-1v1zm0 4h1v-1h-1v1zm0 4h1v-1h-1v1zm0 4h1v-1h-1v1zm0 4h1v-1h-1v1zm0 4h1v-1h-1v1zm0 4h1v-1h-1v1zm0 4h1v-1h-1v1zm0 4h1v-1h-1v1zm0 4h1v-1h-1v1zm0 4h1v-1h-1v1zm0 4h1v-1h-1v1zm0 4h1v-1h-1v1zm0 4h1v-1h-1v1zm0 4h1v-1h-1v1zm0 4h1v-1h-1v1zm0 4h1v-1h-1v1zm0 4h1v-1h-1v1zm0 4h1v-1h-1v1zm0 4h1v-1h-1v1zm0 4h1v-1h-1v1zm0 4h1v-1h-1v1zm0 4h1v-1h-1v1zm0 4h1v-1h-1v1zm0 4h1v-1h-1v1zm0 4h1v-1h-1v1zm0 4h1v-1h-1v1zm0 4h1v-1h-1v1zm0 4h1v-1h-1v1zm0 4h1v-1h-1v1zm0 4h1v-1h-1v1zm0 4h1v-1h-1v1zm0 4h1v-1h-1v1zm0 4h1v-1h-1v1zm0 4h1v-1h-1v1zm0 4h1v-1h-1v1zm0 4h1v-1h-1v1zm0 4h1v-1h-1v1zm0 4h1v-1h-1v1zm0 4h1v-1h-1v1zm0 4h1v-1h-1v1zm0 4h1v-1h-1v1zm0 4h1v-1h-1v1zm0 4h1v-1h-1v1zm0 4h1v-1h-1v1zm0 4h1v-1h-1v1zm0 4h1v-1h-1v1zm0 4h1v-1h-1v1zm0 4h1v-1h-1v1zm0 4h1v-1h-1v1zm0 4h1v-1h-1v1z" stroke-dasharray="1,3"/><path d="M153.984 486.288l-4-4 4 14 4-14-4 4z" stroke-width=".8pt"/></g><text x="545.984" y="172.875" font-size="14.794" font-weight="400" font-family="Arial" transform="translate(167 -123.862)"><tspan x="545.984" y="172.875">SYN</tspan></text><text x="116.421" y="257.301" font-size="14.794" font-weight="400" font-family="Arial" transform="translate(167 -123.862)"><tspan x="116.421" y="257.301">SYN/SYN+ACK</tspan></text><text x="-136.58" y="255.538" font-size="13.119" font-style="italic" font-weight="400" font-family="Courier New" transform="translate(167 -123.862)"><tspan x="-136.58" y="255.538">(Step 2 of the 3-way-handshake)</tspan></text><text x="13.001" y="182.986" font-size="12.898" font-weight="400" font-family="Arial" transform="translate(167 -123.862)"><tspan x="13.001" y="182.986">unusual event</tspan></text><text x="13.001" y="196.986" font-size="12.898" font-weight="400" font-family="Arial" transform="translate(167 -123.862)"><tspan x="13.001" y="196.986">client/receiver path</tspan></text><text x="13.001" y="212.986" font-size="12.898" font-weight="400" font-family="Arial" transform="translate(167 -123.862)"><tspan x="13.001" y="212.986">server/sender path</tspan></text><text x="205.759" y="331.997" font-size="13.099" font-weight="400" font-family="Arial" transform="translate(167 -123.862)"><tspan x="205.759" y="331.997">RST/-</tspan></text><text x="234.394" y="363.315" font-size="13.935" font-weight="400" font-family="Arial" transform="translate(167 -123.862)"><tspan x="234.394" y="363.315">SYN/SYN+ACK</tspan></text><text x="342.4" y="361.734" font-size="13.119" font-weight="400" font-family="Courier New" transform="translate(167 -123.862)"><tspan x="342.4" y="361.734">(simultaneous open)</tspan></text><text x="525.936" y="437.63" font-size="13.175" font-weight="400" font-family="Arial" transform="translate(167 -123.862)"><tspan x="525.936" y="437.63">SYN+ACK/ACK</tspan></text><text x="470.861" y="457.842" font-size="13.119" font-style="italic" font-weight="400" font-family="Courier New" transform="translate(167 -123.862)"><tspan x="470.861" y="457.842">(Step 3 of the 3-way-handshake)</tspan></text><text x="262.947" y="422.007" font-size="17.029" font-weight="400" font-family="Courier New" transform="translate(167 -123.862)"><tspan x="262.947" y="422.007">Data exchange occurs</tspan></text><text x="305.217" y="448.557" font-size="16.794" font-weight="700" font-family="Arial" transform="translate(167 -123.862)"><tspan x="305.217" y="448.557">ESTABLISHED</tspan></text><text x="517.893" y="528.066" font-size="14.137" font-weight="400" font-family="Arial" transform="translate(167 -123.862)"><tspan x="517.893" y="528.066">FIN/ACK</tspan></text><text x="153.153" y="436.919" font-size="12.929" font-weight="400" font-family="Arial" transform="translate(167 -123.862)"><tspan x="153.153" y="436.919">ACK/-</tspan></text><g fill="brown" stroke="brown" fill-rule="evenodd"><path d="M88.156 69.938v1h81.75v-1h-81.75z"/><path d="M159.914 70.442l-4 4 14-4-14-4 4 4z" stroke-width=".8pt"/></g><g fill="#0001f6" stroke="#0001f6" fill-rule="evenodd"><path d="M88.156 85.95v1h81.75v-1h-81.75z"/><path d="M159.914 86.442l-4 4 14-4-14-4 4 4z" stroke-width=".8pt"/></g><g stroke="#000" fill-rule="evenodd"><path d="M88.156 56.95h1v-1h-1v1zm4 0h1v-1h-1v1zm4 0h1v-1h-1v1zm4 0h1v-1h-1v1zm4 0h1v-1h-1v1zm4 0h1v-1h-1v1zm4 0h1v-1h-1v1zm4 0h1v-1h-1v1zm4 0h1v-1h-1v1zm4 0h1v-1h-1v1zm4 0h1v-1h-1v1zm4 0h1v-1h-1v1zm4 0h1v-1h-1v1zm4 0h1v-1h-1v1zm4 0h1v-1h-1v1zm4 0h1v-1h-1v1zm4 0h1v-1h-1v1zm4 0h1v-1h-1v1zm4 0h1v-1h-1v1zm4 0h1v-1h-1v1zm4 0h1v-1h-1v1z" stroke-dasharray="1,3"/><path d="M159.914 56.442l-4 4 14-4-14-4 4 4z" stroke-width=".8pt"/></g><text x="517.305" y="211.159" font-size="13.07" font-weight="700" font-family="Arial" transform="translate(167 -123.862)"><tspan x="517.305" y="211.159">CLOSE/-</tspan></text><text x="456.302" y="332.169" font-size="14.794" font-weight="700" font-family="Arial" transform="translate(167 -123.862)"><tspan x="456.302" y="332.169">SEND/</tspan></text><text x="502.974" y="332.172" font-size="14.794" font-weight="400" font-family="Arial" transform="translate(167 -123.862)"><tspan x="502.974" y="332.172">SYN</tspan></text><text x="-5.119" y="501.02" font-size="14.794" font-weight="700" font-family="Arial" transform="translate(167 -123.862)"><tspan x="-5.119" y="501.02">CLOSE/</tspan></text><text x="51.553" y="501.024" font-size="14.794" font-weight="400" font-family="Arial" transform="translate(167 -123.862)"><tspan x="51.553" y="501.024">FIN</tspan></text><text x="158.953" y="529.693" font-size="14.794" font-weight="700" font-family="Arial" transform="translate(167 -123.862)"><tspan x="158.953" y="529.693">CLOSE/</tspan></text><text x="215.626" y="529.697" font-size="14.794" font-weight="400" font-family="Arial" transform="translate(167 -123.862)"><tspan x="215.626" y="529.697">FIN</tspan></text><path fill="#feff00" stroke="#000" stroke-linecap="round" d="M463.314 501.558h135.547v30.043H463.314z"/><text x="325.931" y="645.809" font-size="16.794" font-weight="700" font-family="Arial" transform="translate(167 -123.862)"><tspan x="325.931" y="645.809">CLOSING</tspan></text><path fill="#feff00" stroke="#000" stroke-linecap="round" d="M463.314 651.558h135.547v30.043H463.314z"/><text x="320.654" y="795.809" font-size="16.794" font-weight="700" font-family="Arial" transform="translate(167 -123.862)"><tspan x="320.654" y="795.809">TIME WAIT</tspan></text><path fill="#fe6500" stroke="#000" stroke-linecap="round" d="M463.314 757.558h135.547v30.043H463.314z"/><text x="329.097" y="901.809" font-size="16.794" font-weight="700" font-family="Arial" transform="translate(167 -123.862)"><tspan x="329.097" y="901.809">CLOSED</tspan></text><path fill="#feff00" stroke="#000" stroke-linecap="round" d="M131.314 501.558h135.547v30.043H131.314z"/><text x="-11.05" y="645.809" font-size="16.794" font-weight="700" font-family="Arial" transform="translate(167 -123.862)"><tspan x="-11.05" y="645.809">FIN WAIT 1</tspan></text><path fill="#feff00" stroke="#000" stroke-linecap="round" d="M131.314 651.558h135.547v30.043H131.314z"/><text x="-11.993" y="795.809" font-size="16.794" font-weight="700" font-family="Arial" transform="translate(167 -123.862)"><tspan x="-11.993" y="795.809">FIN WAIT 2</tspan></text><path fill="#feff00" stroke="#000" stroke-linecap="round" d="M773.314 501.558h135.547v30.043H773.314z"/><text x="621.548" y="645.809" font-size="16.794" font-weight="700" font-family="Arial" transform="translate(167 -123.862)"><tspan x="621.548" y="645.809">CLOSE WAIT</tspan></text><path fill="#feff00" stroke="#000" stroke-linecap="round" d="M773.314 651.558h135.547v30.043H773.314z"/><text x="631.282" y="795.809" font-size="16.794" font-weight="700" font-family="Arial" transform="translate(167 -123.862)"><tspan x="631.282" y="795.809">LAST ACK</tspan></text><path fill="none" stroke="#000" stroke-linecap="round" d="M692.236 451.277h139.066v29.014H692.236zM514.771 452.127h139.066v29.014H514.771z"/><text x="679.022" y="711.844" font-size="14.794" font-weight="700" font-family="Arial" transform="translate(167 -123.862)"><tspan x="679.022" y="711.844">CLOSE/</tspan></text><text x="735.694" y="711.848" font-size="14.794" font-weight="400" font-family="Arial" transform="translate(167 -123.862)"><tspan x="735.694" y="711.848">FIN</tspan></text><g fill="#0001f6" stroke="#0001f6" fill-rule="evenodd"><path d="M586.844 339.125v70.938h253.25v88.03h1v-89.03h-253.25v-69.938h-1z"/><path d="M840.58 488.094l-4-4 4 14 4-14-4 4z" stroke-width=".8pt"/></g><g fill="#0001f6" stroke="#0001f6" fill-rule="evenodd"><path d="M839.125 535.219v112.344h1V535.219h-1z"/><path d="M839.627 637.552l-4-4 4 14 4-14-4 4z" stroke-width=".8pt"/></g><g fill="#0001f6" stroke="#0001f6" fill-rule="evenodd"><path d="M839.125 684.688v88.968H604.5v1h235.625v-89.968h-1z"/><path d="M614.494 774.162l4-4-14 4 14 4-4-4z" stroke-width=".8pt"/></g><g fill="brown" stroke="brown" fill-rule="evenodd"><path d="M476.25 341.326v68.03H244v89.032h1v-88.031h232.25v-69.031h-1z"/><path d="M244.487 488.385l-4-4 4 14 4-14-4 4z" stroke-width=".8pt"/></g><g stroke="#000" fill-rule="evenodd"><path d="M270.813 509.188h1v-1h-1v1zm4 0h1v-1h-1v1zm4 0h1v-1h-1v1zm4 0h1v-1h-1v1zm4 0h1v-1h-1v1zm4 0h1v-1h-1v1zm4 0h1v-1h-1v1zm4 0h1v-1h-1v1zm4 0h1v-1h-1v1zm4 0h1v-1h-1v1zm4 0h1v-1h-1v1zm4 0h1v-1h-1v1zm4 0h1v-1h-1v1zm4 0h1v-1h-1v1zm4 0h1v-1h-1v1zm4 0h1v-1h-1v1zm4 0h1v-1h-1v1zm4 0h1v-1h-1v1zm4 0h1v-1h-1v1zm4 0h1v-1h-1v1zm4 0h1v-1h-1v1zm4 0h1v-1h-1v1zm4 0h1v-1h-1v1zm4 0h1v-1h-1v1zm4 0h1v-1h-1v1zm4 0h1v-1h-1v1zm4 0h1v-1h-1v1zm4 0h1v-1h-1v1zm4 0h1v-1h-1v1zm4 0h1v-1h-1v1zm4 0h1v-1h-1v1zm4 0h1v-1h-1v1zm4 0h1v-1h-1v1zm4 0h1v-1h-1v1zm4 0h1v-1h-1v1zm4 0h1v-1h-1v1zm4 0h1v-1h-1v1zm4 0h1v-1h-1v1zm4 0h1v-1h-1v1zm4 0h1v-1h-1v1zm4 0h1v-1h-1v1zm4 0h1v-1h-1v1zm4 0h1v-1h-1v1zm4 0h1v-1h-1v1zm4 0h1v-1h-1v1zm4 0h1v-1h-1v1zm4 0h1v-1h-1v1zm4 0v-1 1z" stroke-dasharray="1,3"/><path d="M448.819 508.7l-4 4 14-4-14-4 4 4z" stroke-width=".8pt"/></g><g stroke="#000" fill-rule="evenodd"><path d="M270.813 524.875h1v-1h-1v1zm4 0h1v-1h-1v1zm4 0h1v-1h-1v1zm4 0h1v-1h-1v1zm4 0h1v-1h-1v1zm4 0h1v-1h-1v1zm4 0h1v-1h-1v1zm4 0h1v-1h-1v1zm4 0h1v-1h-1v1zm4 0h1v-1h-1v1zm4 0h1v-1h-1v1zm4 0h1v-1h-1v1zm4 0h1v-1h-1v1zm4 0h1v-1h-1v1zm4 0h1v-1h-1v1zm4 0h1v-1h-1v1zm4 0h1v-1h-1v1zm4 0h1v-1h-1v1zm4 0h1v-1h-1v1zm4 0h1v-1h-1v1zm4 0h1v-1h-1v1zm4 0h1v-1h-1v1zm4 0h1v-1h-1v1zm4 0h1v-1h-1v1zm4 0h1v-1h-1v1zm4 0h1v-1h-1v1zm.906 3.094h1v-1h-1v1zm0 4h1v-1h-1v1zm0 4h1v-1h-1v1zm0 4h1v-1h-1v1zm0 4h1v-1h-1v1zm0 4h1v-1h-1v1zm0 4h1v-1h-1v1zm0 4h1v-1h-1v1zm0 4h1v-1h-1v1zm0 4h1v-1h-1v1zm0 4h1v-1h-1v1zm0 4h1v-1h-1v1zm0 4h1v-1h-1v1zm0 4h1v-1h-1v1zm0 4h1v-1h-1v1zm0 4h1v-1h-1v1zm0 4h1v-1h-1v1zm0 4h1v-1h-1v1zm0 4h1v-1h-1v1zm0 4h1v-1h-1v1zm0 4h1v-1h-1v1zm0 4h1v-1h-1v1zm0 4h1v-1h-1v1zm0 4h1v-1h-1v1zm0 4h1v-1h-1v1zm0 4h1v-1h-1v1zm0 4h1v-1h-1v1zm0 4h1v-1h-1v1zm0 4h1v-1h-1v1zm0 4h1v-1h-1v1zm0 4h1v-1h-1v1zm0 4h1v-1h-1v1zm0 4h1v-1h-1v1zm.5 3h-.5v.75H373v-1h-.781v.25zm3.781.75h1v-1h-1v1zm4 0h1v-1h-1v1zm4 0h1v-1h-1v1zm4 0h1v-1h-1v1zm4 0h1v-1h-1v1zm4 0h1v-1h-1v1zm4 0h1v-1h-1v1zm4 0h1v-1h-1v1zm4 0h1v-1h-1v1zm4 0h1v-1h-1v1zm4 0h1v-1h-1v1zm4 0h1v-1h-1v1zm4 0h1v-1h-1v1zm4 0h1v-1h-1v1zm4 0h1v-1h-1v1zm4 0h1v-1h-1v1zm4 0h1v-1h-1v1zm4 0h1v-1h-1v1zm4 0h1v-1h-1v1zm4 0h1v-1h-1v1zm4 0h1v-1h-1v1z" stroke-dasharray="1,3"/><path d="M448.819 659.218l-4 4 14-4-14-4 4 4z" stroke-width=".8pt"/></g><text x="165.623" y="624.824" font-size="12.786" font-weight="400" font-family="Arial" transform="translate(167 -123.862)"><tspan x="165.623" y="624.824">FIN/ACK</tspan></text><text x="108.961" y="668.411" font-size="12.786" font-weight="400" font-family="Arial" transform="translate(167 -123.862)"><tspan x="108.961" y="668.411">FIN+ACK/ACK</tspan></text><text x="-9.885" y="711.416" font-size="12.786" font-weight="400" font-family="Arial" transform="translate(167 -123.862)"><tspan x="-9.885" y="711.416">ACK/-</tspan></text><g stroke="#000" fill-rule="evenodd"><path d="M531.125 536.232h1v-1h-1v1zm0 4h1v-1h-1v1zm0 4h1v-1h-1v1zm0 4h1v-1h-1v1zm0 4h1v-1h-1v1zm0 4h1v-1h-1v1zm0 4h1v-1h-1v1zm0 4h1v-1h-1v1zm0 4h1v-1h-1v1zm0 4h1v-1h-1v1zm0 4h1v-1h-1v1zm0 4h1v-1h-1v1zm0 4h1v-1h-1v1zm0 4h1v-1h-1v1zm0 4h1v-1h-1v1zm0 4h1v-1h-1v1zm0 4h1v-1h-1v1zm0 4h1v-1h-1v1zm0 4h1v-1h-1v1zm0 4h1v-1h-1v1zm0 4h1v-1h-1v1zm0 4h1v-1h-1v1zm0 4h1v-1h-1v1zm0 4h1v-1h-1v1zm0 4h1v-1h-1v1zm0 4h1v-1h-1v1zm0 4h1v-1h-1v1zm0 4h1v-1h-1v1zm0 3.312h1v-.312h-1v.312z" stroke-dasharray="1,3"/><path d="M531.627 637.552l-4-4 4 14 4-14-4 4z" stroke-width=".8pt"/></g><g fill="brown" stroke="brown" fill-rule="evenodd"><path d="M198.25 536v112.188h1V536h-1z"/><path d="M198.754 638.176l-4-4 4 14 4-14-4 4z" stroke-width=".8pt"/></g><g fill="brown" stroke="brown" fill-rule="evenodd"><path d="M271.094 673.25v1h186.844v-1H271.094z"/><path d="M447.947 673.746l-4 4 14-4-14-4 4 4z" stroke-width=".8pt"/></g><text x="165.914" y="813.989" font-size="12.786" font-weight="400" font-family="Arial" transform="translate(167 -123.862)"><tspan x="165.914" y="813.989">FIN/ACK</tspan></text><g fill="brown" stroke="brown" fill-rule="evenodd"><path d="M530.688 685.094v69.437h1v-69.437h-1z"/><path d="M531.172 744.526l-4-4 4 14 4-14-4 4z" stroke-width=".8pt"/></g><text x="368.705" y="841.078" font-size="14.094" font-weight="400" font-family="Arial" transform="translate(167 -123.862)"><tspan x="368.705" y="841.078">Timeout</tspan></text><text x="110.131" y="901.426" font-size="16.973" font-weight="400" font-family="Courier New" transform="translate(167 -123.862)"><tspan x="110.131" y="901.426">(Go back to start)</tspan></text><g fill="brown" stroke="brown" fill-rule="evenodd"><path d="M839.156 262.906v56.282H619v1h221.156v-57.282h-1z"/><path d="M628.998 319.693l4-4-14 4 14 4-4-4z" stroke-width=".8pt"/></g><g fill="#0001f6" stroke="#0001f6" fill-rule="evenodd"><path d="M243.281 262.906v57.688H443.75v-1H244.281v-56.688h-1z"/><path d="M433.764 320.098l-4 4 14-4-14-4 4 4z" stroke-width=".8pt"/></g><text x="361.706" y="594.274" font-size="16.985" font-weight="400" font-family="Courier New" transform="translate(167 -123.862)"><tspan x="361.706" y="594.274">Active CLOSE</tspan></text><text x="529.407" y="593.423" font-size="16.985" font-weight="400" font-family="Courier New" transform="translate(167 -123.862)"><tspan x="529.407" y="593.423">Passive CLOSE</tspan></text><text x="371.276" y="717.472" font-size="12.786" font-weight="400" font-family="Arial" transform="translate(167 -123.862)"><tspan x="371.276" y="717.472">ACK/-</tspan></text><text x="681.988" y="835.355" font-size="12.786" font-weight="400" font-family="Arial" transform="translate(167 -123.862)"><tspan x="681.988" y="835.355">ACK/-</tspan></text></svg>